OFF
INCH
378	760
267.1401319993465         -83.23334684416675        3.736511685988665        
267.1401319993465         -83.31595442321029        3.754070709811990        
266.1401320114317         -83.31595442321030        3.754070709811992        
267.1401319993465         -83.16502208679351        3.686871166106853        
266.1401320114317         -83.23334684416677        3.736511685988667        
267.1401319993465         -83.12279548126553        3.613731984350255        
266.1401320114317         -83.16502208679353        3.686871166106855        
267.1401319993465         -83.11396742324801        3.529741061287232        
266.1401320114317         -83.12279548126554        3.613731984350257        
267.1401319993465         -83.14006557509326        3.449420575823001        
266.1401320114317         -83.11396742324803        3.529741061287234        
267.1401319993465         -83.19657617561133        3.386659407512040        
266.1401320114317         -83.14006557509329        3.449420575823003        
267.1401319993465         -83.27372781768230        3.352309004330828        
266.1401320114317         -83.19657617561134        3.386659407512042        
266.1401320114317         -83.27372781768231        3.352309004330830        
266.1401320114317         -83.35818220205806        3.352309004330830        
267.1401319993465         -83.31595442321029        3.347870628936653        
267.1401319993465         -83.35818220205805        3.352309004330828        
267.1401319993465         -83.43533384412902        3.386659407512040        
267.1401319993465         -83.49184444464709        3.449420575823001        
266.1401320114317         -83.43533384412905        3.386659407512042        
267.1401319993465         -83.51794259649233        3.529741061287232        
266.1401320114317         -83.49184444464710        3.449420575823003        
267.1401319993465         -83.50911453847482        3.613731984350255        
266.1401320114317         -83.51794259649235        3.529741061287234        
267.1401319993465         -83.46688793294683        3.686871166106853        
266.1401320114317         -83.50911453847483        3.613731984350257        
267.1401319993465         -83.39856317557360        3.736511685988665        
266.1401320114317         -83.46688793294685        3.686871166106855        
266.1401320114317         -83.39856317557361        3.736511685988667        
267.1401319993465         -83.01595532882543        0.2509706762558414       
267.1401319993465         -83.61595469091492        0.2509706762558413       
267.1401319993465         -83.61595469091492        4.550970730621614        
267.1401319993465         -83.01595532882543        4.550970730621614        
267.1249079185497         -82.93941850631866        0.2509706762558414       
267.1249079185497         -82.93941850631866        4.550970730621614        
267.0815533493854         -82.87453392253758        0.2509706762558415       
267.0815533493854         -82.87453392253758        4.550970730621614        
267.0166686922718         -82.83117858338215        0.2509706762558416       
267.0166686922718         -82.83117858338215        4.550970730621615        
266.9401319980969         -82.81595475924907        0.2509706762558417       
266.9401319980969         -82.81595475924907        4.550970730621615        
266.9401319980969         -82.93941850631866        4.735746596075050        
266.9401319980969         -83.01595532882543        4.750970713538079        
267.0166686922718         -83.01595532882543        4.735746596075050        
267.0815533493854         -83.01595532882543        4.692392136909461        
267.1249079185497         -83.01595532882543        4.627507259798431        
266.9401319980969         -82.87453392253758        4.692392136909461        
266.9401319980969         -82.83117858338215        4.627507259798432        
267.0108426829077         -82.93941850631866        4.721681425223770        
267.0707882870776         -82.93941850631866        4.681626927936740        
267.1108426743659         -82.93941850631866        4.621681433765538        
266.9942516112358         -82.87453392253758        4.681626927936740        
267.0401320078882         -82.87453392253758        4.650970722079847        
267.0707882870776         -82.87453392253758        4.605090398759923        
266.9694213414106         -82.83117858338215        4.621681433765538        
266.9942516112358         -82.83117858338215        4.605090398759923        
267.0108426829077         -82.83117858338215        4.580260018935923        
266.3401320126812         -82.81595475924907        0.2509706762558430       
266.3401320126812         -82.81595475924907        4.550970730621616        
266.2635953185064         -82.83117858338215        0.2509706762558431       
266.2635953185064         -82.83117858338215        4.550970730621616        
266.1987106613928         -82.87453392253758        0.2509706762558433       
266.1987106613928         -82.87453392253758        4.550970730621616        
266.1553560922284         -82.93941850631867        0.2509706762558434       
266.1553560922284         -82.93941850631867        4.550970730621616        
266.1401320114317         -83.01595532882544        0.2509706762558434       
266.1401320114317         -83.01595532882544        4.550970730621616        
266.3401320126812         -82.83117858338215        4.627507259798433        
266.3401320126812         -82.87453392253758        4.692392136909462        
266.3401320126812         -82.93941850631866        4.735746596075050        
266.3401320126812         -83.01595532882543        4.750970713538080        
267.1249079185497         -83.61595469091492        4.627507259798431        
267.0815533493854         -83.61595469091492        4.692392136909461        
267.0166686922718         -83.61595469091492        4.735746596075050        
266.9401319980969         -83.61595469091492        4.750970713538079        
266.2635953185064         -83.01595532882543        4.735746596075050        
266.1987106613928         -83.01595532882543        4.692392136909463        
266.1553560922284         -83.01595532882544        4.627507259798434        
266.2635953185064         -82.94524403902160        4.721681425223771        
266.2635953185064         -82.88529913151029        4.681626927936742        
266.2635953185064         -82.84524434089332        4.621681433765539        
266.1987106613928         -82.96183478069727        4.681626927936742        
266.1987106613928         -82.91595445737735        4.650970722079848        
266.1987106613928         -82.88529913151029        4.605090398759925        
266.1553560922284         -82.98666574718119        4.621681433765540        
266.1553560922284         -82.96183478069730        4.605090398759925        
266.1553560922284         -82.94524403902163        4.580260018935925        
266.3401320126812         -83.61595469091492        4.750970713538080        
267.1249079185497         -83.69249151342169        4.550970730621614        
267.0815533493854         -83.75737609720277        4.550970730621614        
266.9401319980969         -83.69249151342169        4.735746596075050        
267.0166686922718         -83.80073143635819        4.550970730621615        
266.9401319980969         -83.75737609720277        4.692392136909461        
266.9401319980969         -83.81595526049128        4.550970730621615        
266.9401319980969         -83.80073143635819        4.627507259798432        
267.1108426743659         -83.69249151342169        4.621681433765538        
267.0707882870776         -83.69249151342169        4.681626927936740        
267.0108426829077         -83.69249151342169        4.721681425223770        
267.0707882870776         -83.75737609720277        4.605090398759923        
267.0401320078882         -83.75737609720277        4.650970722079847        
266.9942516112358         -83.75737609720277        4.681626927936740        
267.0108426829077         -83.80073143635819        4.580260018935923        
266.9942516112358         -83.80073143635819        4.605090398759923        
266.9694213414106         -83.80073143635819        4.621681433765538        
266.1401320114317         -83.61595469091495        4.550970730621616        
266.1553560922284         -83.61595469091495        4.627507259798434        
266.1987106613928         -83.61595469091492        4.692392136909463        
266.2635953185064         -83.61595469091492        4.735746596075050        
266.3401320126812         -83.81595526049128        4.550970730621616        
266.3401320126812         -83.80073143635819        4.627507259798433        
266.3401320126812         -83.75737609720277        4.692392136909462        
266.3401320126812         -83.69249151342169        4.735746596075050        
266.9401319980969         -83.81595526049128        0.2509706762558417       
267.0166686922718         -83.80073143635819        0.2509706762558415       
267.0815533493854         -83.75737609720277        0.2509706762558414       
267.1249079185497         -83.69249151342169        0.2509706762558413       
266.3401320126812         -83.81595526049128        0.2509706762558430       
266.1401320114317         -83.61595469091495        0.2509706762558434       
266.1553560922284         -83.69249151342170        0.2509706762558434       
266.1553560922284         -83.69249151342170        4.550970730621616        
266.1987106613928         -83.75737609720277        0.2509706762558432       
266.1987106613928         -83.75737609720277        4.550970730621616        
266.2635953185064         -83.80073143635819        0.2509706762558431       
266.2635953185064         -83.80073143635819        4.550970730621616        
266.2635953185064         -83.78666567884703        4.621681433765539        
266.2635953185064         -83.74661088823005        4.681626927936742        
266.2635953185064         -83.68666598071874        4.721681425223771        
266.1987106613928         -83.74661088823005        4.605090398759925        
266.1987106613928         -83.71595438904320        4.650970722079848        
266.1987106613928         -83.67007406572328        4.681626927936742        
266.1553560922284         -83.68666598071876        4.580260018935925        
266.1553560922284         -83.67007406572331        4.605090398759925        
266.1553560922284         -83.64524427255920        4.621681433765540        
267.1401319993464         -49.31595498077182        0.2509706762558436       
266.1401320114316         -49.31595498077182        0.2509706762558456       
266.1401320114317         -84.11595552819594        0.2509706762558433       
267.1401319993465         -84.11595552819591        0.2509706762558412       
266.1401320114316         -49.31595498077182        -0.2490293177015577      
265.9633552902380         -49.31595498077182        0.1777473821375880       
266.0444611299631         -49.31595498077182        0.2319405660933024       
265.8901319961197         -49.31595498077182        0.0009706792771427077    
265.9091621429486         -49.31595498077182        0.09664153324594220      
266.0444611299631         -49.31595498077182        -0.2299992075390140      
267.3711018678295         -49.31595498077182        -0.09470017469165630     
267.3169087205400         -49.31595498077182        -0.1758060235833021      
267.3169087205400         -49.31595498077182        0.1777473821375852       
267.3711018678295         -49.31595498077182        0.09664153324593916      
267.2358028808149         -49.31595498077182        0.2319405660932999       
265.9633552902380         -49.31595498077182        -0.1758060235832993      
267.2358028808149         -49.31595498077182        -0.2299992075390165      
265.9091621429486         -49.31595498077182        -0.09470017469165326     
267.1401319993464         -49.31595498077182        -0.2490293177015597      
267.3901320146582         -49.31595498077182        0.0009706792771398263    
267.2358028808150         -84.11595552819591        -0.2299992075390188      
267.1401319993465         -83.01595532882543        -0.2490293177015620      
267.1401319993465         -83.61595469091492        -0.2490293177015620      
267.1401319993465         -84.11595552819591        -0.2490293177015620      
267.3169087205400         -84.11595552819591        -0.1758060235833044      
267.3711018678295         -84.11595552819591        -0.09470017469165860     
267.3901320146583         -84.11595552819591        0.0009706792771374955    
267.3711018678295         -84.11595552819591        0.09664153324593684      
267.3169087205400         -84.11595552819591        0.1777473821375829       
267.2358028808150         -84.11595552819591        0.2319405660932976       
266.0444611299632         -84.11595552819594        0.2319405660933000       
265.9633552902381         -84.11595552819594        0.1777473821375857       
265.9091621429486         -84.11595552819594        0.09664153324593990      
265.8901319961199         -84.11595552819594        0.0009706792771400822    
265.9091621429486         -84.11595552819594        -0.09470017469165556     
265.9633552902381         -84.11595552819594        -0.1758060235833016      
266.0444611299632         -84.11595552819594        -0.2299992075390163      
266.1401320114317         -83.01595532882544        -0.2490293177015599      
266.1401320114317         -83.61595469091495        -0.2490293177015600      
266.1401320114317         -84.11595552819594        -0.2490293177015600      
266.1401320114317         -84.19249117738292        0.2357465771259356       
267.1401319993465         -84.19249117738291        0.2357465771259335       
266.1401320114317         -84.25737576116400        0.1923920446278612       
267.1401319993465         -84.25737576116398        0.1923920446278592       
266.1401320114317         -84.30073110031942        0.1275073691811688       
267.1401319993465         -84.30073110031941        0.1275073691811667       
266.1401320114317         -84.31595492445251        0.05097067958953807      
267.1401319993465         -84.31595492445250        0.05097067958953599      
267.1754873509184         -84.31595492445250        -0.03438466083662119     
267.1863259657098         -84.31595492445250        0.02010485052922707      
267.1754873509184         -84.31595492445250        0.03632601939090020      
267.1863259657098         -84.31595492445250        -0.01816349197494810     
267.1901319950756         -84.31595492445250        0.0009706792771378496    
267.1592661683069         -84.31595492445250        0.04716465480705901      
267.1401319993465         -84.31595492445250        -0.04902932103525682     
267.1592661683069         -84.31595492445250        -0.04522329625277993     
266.1209978424712         -84.31595492445251        0.04716465480706118      
266.1047766598597         -84.31595492445251        -0.03438466083661896     
266.1209978424712         -84.31595492445251        -0.04522329625277776     
266.0939380450683         -84.31595492445251        -0.01816349197494583     
266.1047766598597         -84.31595492445251        0.03632601939090243      
266.0939380450683         -84.31595492445251        0.02010485052922934      
266.1401320114317         -84.31595492445251        -0.04902932103525474     
266.0901320157025         -84.31595492445251        0.0009706792771400323    
267.1401319993465         -84.30073110031941        -0.1255660106268876      
267.1401319993465         -84.25737576116398        -0.1904506860735800      
267.1401319993465         -84.19249117738291        -0.2338052185716543      
267.1885554932875         -84.30073110031941        0.1178753304513000       
267.2296069457242         -84.30073110031941        0.09044562565492367      
267.2570366321875         -84.30073110031941        0.04939417321813854      
267.2666687075836         -84.30073110031941        0.0009706792771377976    
267.2570366321875         -84.30073110031941        -0.04745281466385985     
267.2296069457242         -84.30073110031941        -0.08850426710064487     
267.1885554932875         -84.30073110031941        -0.1159339718970210      
267.2133857997790         -84.25737576116398        0.1778209529543534       
267.2754873790429         -84.25737576116398        0.1363260223073330       
267.3169822730237         -84.25737576116398        0.07422446137653077      
267.3315533646972         -84.25737576116398        0.0009706792771376546    
267.3169822730237         -84.25737576116398        -0.07228310282225234     
267.2754873790429         -84.25737576116398        -0.1343846637530544      
267.2133857997790         -84.25737576116398        -0.1758795944000745      
267.2299768714508         -84.19249117738291        0.2178753402426535       
267.3061436582323         -84.19249117738291        0.1669823198298346       
267.3570366236457         -84.19249117738291        0.09081553304838830      
267.3749078971953         -84.19249117738291        0.0009706792771376524    
267.3570366236457         -84.19249117738291        -0.08887417449411003     
267.3061436582323         -84.19249117738291        -0.1650409612755562      
267.2299768714508         -84.19249117738291        -0.2159339816883746      
266.1401320114317         -84.30073110031942        -0.1255660106268855      
266.1401320114317         -84.25737576116400        -0.1904506860735779      
266.1401320114317         -84.19249117738292        -0.2338052185716523      
266.0917085174906         -84.30073110031942        -0.1159339718970187      
266.0506570650539         -84.30073110031942        -0.08850426710064242     
266.0232273785906         -84.30073110031942        -0.04745281466385729     
266.0135953031945         -84.30073110031942        0.0009706792771401249    
266.0232273785906         -84.30073110031942        0.04939417321814110      
266.0506570650539         -84.30073110031942        0.09044562565492612      
266.0917085174906         -84.30073110031942        0.1178753304513022       
266.0668782109992         -84.25737576116400        -0.1758795944000722      
266.0047766317352         -84.25737576116400        -0.1343846637530518      
265.9632817377545         -84.25737576116400        -0.07228310282224952     
265.9487106460809         -84.25737576116400        0.0009706792771401478    
265.9632817377545         -84.25737576116400        0.07422446137653359      
266.0047766317352         -84.25737576116400        0.1363260223073356       
266.0668782109992         -84.25737576116400        0.1778209529543558       
266.0502871393273         -84.19249117738292        -0.2159339816883722      
265.9741203525459         -84.19249117738292        -0.1650409612755534      
265.9232273871324         -84.19249117738292        -0.08887417449410705     
265.9053561135829         -84.19249117738292        0.0009706792771401884    
265.9232273871324         -84.19249117738292        0.09081553304839127      
265.9741203525459         -84.19249117738292        0.1669823198298374       
266.0502871393273         -84.19249117738292        0.2178753402426559       
267.0166686922718         -82.83117858338215        -0.2490293177015617      
266.9401319980969         -82.81595475924907        -0.2490293177015616      
267.1249079185497         -82.93941850631866        -0.2490293177015619      
266.3401320126812         -82.81595475924907        -0.2490293177015603      
266.2635953185064         -82.83117858338215        -0.2490293177015601      
267.0815533493854         -82.87453392253758        -0.2490293177015618      
266.1987106613928         -82.87453392253758        -0.2490293177015600      
266.1553560922284         -82.93941850631867        -0.2490293177015599      
266.9401319980969         -82.81595475924907        -5.049029329358496       
266.3401320126812         -82.81595475924907        -5.049029329358493       
266.2635953185064         -82.83117858338215        -5.049029329358493       
266.1987106613928         -82.87453392253758        -5.049029329358493       
266.1553560922284         -82.93941850631867        -5.049029329358493       
266.1401320114317         -83.01595532882544        -5.049029329358493       
267.1401319993465         -83.01595532882543        -5.049029329358496       
267.1249079185497         -82.93941850631866        -5.049029329358496       
267.0815533493854         -82.87453392253758        -5.049029329358496       
267.0166686922718         -82.83117858338215        -5.049029329358496       
266.9401319980969         -82.83117858338215        -5.125566151865257       
266.3401320126812         -82.83117858338215        -5.125566151865256       
266.9401319980969         -82.87453392253758        -5.190450735646342       
266.3401320126812         -82.87453392253758        -5.190450735646340       
266.9401319980969         -82.93941850631866        -5.233805488141876       
266.3401320126812         -82.93941850631866        -5.233805488141873       
266.9401319980969         -83.01595532882543        -5.249029312274960       
266.3401320126812         -83.01595532882543        -5.249029312274957       
266.2635953185064         -83.01595532882543        -5.233805488141873       
266.1987106613928         -83.01595532882543        -5.190450735646340       
266.1553560922284         -83.01595532882544        -5.125566151865256       
266.2635953185064         -82.84524434089332        -5.119740032502417       
266.2635953185064         -82.88529913151029        -5.179685526673619       
266.2635953185064         -82.94524403902160        -5.219739730630704       
266.1987106613928         -82.88529913151029        -5.103148704166857       
266.1987106613928         -82.91595445737735        -5.149029027486780       
266.1987106613928         -82.96183478069727        -5.179685526673619       
266.1553560922284         -82.94524403902163        -5.078318911002747       
266.1553560922284         -82.96183478069730        -5.103148704166857       
266.1553560922284         -82.98666574718119        -5.119740032502417       
266.1401320114317         -83.61595469091495        -5.049029329358493       
266.1553560922284         -83.61595469091495        -5.125566151865256       
266.1987106613928         -83.61595469091492        -5.190450735646340       
266.2635953185064         -83.61595469091492        -5.233805488141873       
266.3401320126812         -83.61595469091492        -5.249029312274957       
267.1249079185497         -83.01595532882543        -5.125566151865257       
267.0815533493854         -83.01595532882543        -5.190450735646342       
267.0166686922718         -83.01595532882543        -5.233805488141876       
267.1108426743659         -82.93941850631866        -5.119740032502419       
267.0707882870776         -82.93941850631866        -5.179685526673621       
267.0108426829077         -82.93941850631866        -5.219739730630706       
267.0707882870776         -82.87453392253758        -5.103148704166860       
267.0401320078882         -82.87453392253758        -5.149029027486783       
266.9942516112358         -82.87453392253758        -5.179685526673621       
267.0108426829077         -82.83117858338215        -5.078318911002749       
266.9942516112358         -82.83117858338215        -5.103148704166860       
266.9694213414106         -82.83117858338215        -5.119740032502419       
266.9401319980969         -83.61595469091492        -5.249029312274960       
267.1401319993465         -83.61595469091492        -5.049029329358496       
267.1249079185497         -83.61595469091492        -5.125566151865257       
267.0815533493854         -83.61595469091492        -5.190450735646342       
267.0166686922718         -83.61595469091492        -5.233805488141876       
266.9401319980969         -83.81595526049128        -5.049029329358496       
266.3401320126812         -83.81595526049128        -5.049029329358493       
266.3401320126812         -83.80073143635819        -5.125566151865256       
266.9401319980969         -83.80073143635819        -5.125566151865257       
266.3401320126812         -83.75737609720277        -5.190450735646340       
266.9401319980969         -83.75737609720277        -5.190450735646342       
266.3401320126812         -83.69249151342169        -5.233805488141873       
266.9401319980969         -83.69249151342169        -5.233805488141876       
266.2635953185064         -83.80073143635819        -5.049029329358493       
266.1987106613928         -83.75737609720277        -5.049029329358493       
266.1553560922284         -83.69249151342170        -5.049029329358493       
266.2635953185064         -83.68666598071874        -5.219739730630704       
266.2635953185064         -83.74661088823005        -5.179685526673619       
266.2635953185064         -83.78666567884703        -5.119740032502417       
266.1987106613928         -83.67007406572328        -5.179685526673619       
266.1987106613928         -83.71595438904320        -5.149029027486780       
266.1987106613928         -83.74661088823005        -5.103148704166857       
266.1553560922284         -83.64524427255920        -5.119740032502417       
266.1553560922284         -83.67007406572331        -5.103148704166857       
266.1553560922284         -83.68666598071876        -5.078318911002747       
266.1553560922284         -83.69249151342170        -0.2490293177015600      
266.1987106613928         -83.75737609720277        -0.2490293177015601      
266.2635953185064         -83.80073143635819        -0.2490293177015602      
266.3401320126812         -83.81595526049128        -0.2490293177015604      
266.9401319980969         -83.81595526049128        -0.2490293177015616      
267.0815533493854         -83.75737609720277        -0.2490293177015619      
267.1249079185497         -83.69249151342169        -0.2490293177015620      
267.0166686922718         -83.80073143635819        -0.2490293177015618      
267.0166686922718         -83.80073143635819        -5.049029329358496       
267.0815533493854         -83.75737609720277        -5.049029329358496       
267.1249079185497         -83.69249151342169        -5.049029329358496       
267.0108426829077         -83.69249151342169        -5.219739730630706       
267.0707882870776         -83.69249151342169        -5.179685526673621       
267.1108426743659         -83.69249151342169        -5.119740032502419       
266.9942516112358         -83.75737609720277        -5.179685526673621       
267.0401320078882         -83.75737609720277        -5.149029027486783       
267.0707882870776         -83.75737609720277        -5.103148704166860       
266.9694213414106         -83.80073143635819        -5.119740032502419       
266.9942516112358         -83.80073143635819        -5.103148704166860       
267.0108426829077         -83.80073143635819        -5.078318911002749       
266.1401320114317         -83.31595442321030        -3.845929227673532       
266.1401320114317         -83.50911453847483        -3.986267953135267       
266.1401320114317         -83.51794259649235        -4.070259169528235       
266.1401320114317         -83.23334684416677        -3.863488251496858       
266.1401320114317         -83.12279548126554        -3.986267953135267       
266.1401320114317         -83.16502208679353        -3.913128771378669       
266.1401320114317         -83.11396742324803        -4.070259169528235       
266.1401320114317         -83.39856317557361        -3.863488251496858       
266.1401320114317         -83.46688793294685        -3.913128771378669       
266.1401320114317         -83.14006557509329        -4.150579361662521       
266.1401320114317         -83.49184444464710        -4.150579361662521       
266.1401320114317         -83.43533384412905        -4.213340529973483       
266.1401320114317         -83.27372781768231        -4.247691226484639       
266.1401320114317         -83.19657617561134        -4.213340529973483       
266.1401320114317         -83.35818220205806        -4.247691226484639       
267.1401319993465         -83.31595442321029        -4.252129308548872       
267.1401319993465         -83.27372781768230        -4.247691226484640       
267.1401319993465         -83.35818220205805        -4.247691226484640       
267.1401319993465         -83.51794259649233        -4.070259169528237       
267.1401319993465         -83.19657617561133        -4.213340529973485       
267.1401319993465         -83.12279548126553        -3.986267953135270       
267.1401319993465         -83.11396742324801        -4.070259169528237       
267.1401319993465         -83.23334684416675        -3.863488251496860       
267.1401319993465         -83.16502208679351        -3.913128771378672       
267.1401319993465         -83.50911453847482        -3.986267953135270       
267.1401319993465         -83.46688793294683        -3.913128771378672       
267.1401319993465         -83.49184444464709        -4.150579361662524       
267.1401319993465         -83.43533384412902        -4.213340529973485       
267.1401319993465         -83.31595442321029        -3.845929227673535       
267.1401319993465         -83.39856317557360        -3.863488251496860       
267.1401319993465         -83.14006557509326        -4.150579361662524       
3  	0  	1  	2  
3  	3  	0  	4  
3  	5  	3  	6  
3  	7  	5  	8  
3  	9  	7  	10  
3  	11  	9  	12  
3  	13  	11  	14  
3  	15  	16  	17  
3  	16  	18  	17  
3  	19  	18  	16  
3  	20  	19  	21  
3  	22  	20  	23  
3  	24  	22  	25  
3  	26  	24  	27  
3  	28  	26  	29  
3  	1  	28  	30  
3  	30  	2  	1  
3  	29  	30  	28  
3  	27  	29  	26  
3  	25  	27  	24  
3  	23  	25  	22  
3  	21  	23  	20  
3  	16  	21  	19  
3  	17  	13  	15  
3  	14  	15  	13  
3  	12  	14  	11  
3  	10  	12  	9  
3  	8  	10  	7  
3  	6  	8  	5  
3  	4  	6  	3  
3  	2  	4  	0  
3  	31  	13  	17  
3  	17  	32  	31  
3  	33  	32  	22  
3  	17  	18  	32  
3  	33  	28  	1  
3  	32  	20  	22  
3  	31  	11  	13  
3  	34  	5  	7  
3  	33  	26  	28  
3  	22  	24  	33  
3  	31  	9  	11  
3  	7  	31  	34  
3  	24  	26  	33  
3  	18  	19  	32  
3  	34  	3  	5  
3  	34  	1  	0  
3  	19  	20  	32  
3  	0  	3  	34  
3  	7  	9  	31  
3  	1  	34  	33  
3  	34  	31  	35  
3  	36  	35  	37  
3  	38  	37  	39  
3  	40  	39  	41  
3  	41  	42  	40  
3  	39  	40  	38  
3  	37  	38  	36  
3  	35  	36  	34  
3  	43  	44  	45  
3  	50  	45  	46  
3  	51  	46  	47  
3  	52  	47  	34  
3  	48  	43  	50  
3  	53  	50  	51  
3  	54  	51  	52  
3  	55  	52  	36  
3  	49  	48  	53  
3  	56  	53  	54  
3  	57  	54  	55  
3  	58  	55  	38  
3  	42  	58  	40  
3  	42  	57  	58  
3  	42  	56  	57  
3  	42  	49  	56  
3  	38  	40  	58  
3  	55  	58  	57  
3  	54  	57  	56  
3  	53  	56  	49  
3  	36  	38  	55  
3  	52  	55  	54  
3  	51  	54  	53  
3  	50  	53  	48  
3  	34  	36  	52  
3  	47  	52  	51  
3  	46  	51  	50  
3  	45  	50  	43  
3  	41  	59  	60  
3  	60  	42  	41  
3  	60  	59  	61  
3  	62  	61  	63  
3  	64  	63  	65  
3  	66  	65  	67  
3  	67  	68  	66  
3  	65  	66  	64  
3  	63  	64  	62  
3  	61  	62  	60  
3  	42  	60  	69  
3  	49  	69  	70  
3  	48  	70  	71  
3  	43  	71  	72  
3  	72  	44  	43  
3  	71  	43  	48  
3  	70  	48  	49  
3  	69  	49  	42  
3  	33  	34  	47  
3  	73  	47  	46  
3  	74  	46  	45  
3  	75  	45  	44  
3  	44  	76  	75  
3  	45  	75  	74  
3  	46  	74  	73  
3  	47  	73  	33  
3  	77  	72  	71  
3  	80  	71  	70  
3  	81  	70  	69  
3  	82  	69  	60  
3  	78  	77  	80  
3  	83  	80  	81  
3  	84  	81  	82  
3  	85  	82  	62  
3  	79  	78  	83  
3  	86  	83  	84  
3  	87  	84  	85  
3  	88  	85  	64  
3  	68  	88  	66  
3  	68  	87  	88  
3  	68  	86  	87  
3  	68  	79  	86  
3  	64  	66  	88  
3  	85  	88  	87  
3  	84  	87  	86  
3  	83  	86  	79  
3  	62  	64  	85  
3  	82  	85  	84  
3  	81  	84  	83  
3  	80  	83  	78  
3  	60  	62  	82  
3  	69  	82  	81  
3  	70  	81  	80  
3  	71  	80  	77  
3  	72  	89  	76  
3  	76  	44  	72  
3  	90  	33  	73  
3  	97  	73  	74  
3  	98  	74  	75  
3  	99  	75  	76  
3  	91  	90  	97  
3  	100  	97  	98  
3  	101  	98  	99  
3  	102  	99  	92  
3  	93  	91  	100  
3  	103  	100  	101  
3  	104  	101  	102  
3  	105  	102  	94  
3  	95  	105  	96  
3  	95  	104  	105  
3  	95  	103  	104  
3  	95  	93  	103  
3  	94  	96  	105  
3  	102  	105  	104  
3  	101  	104  	103  
3  	100  	103  	93  
3  	92  	94  	102  
3  	99  	102  	101  
3  	98  	101  	100  
3  	97  	100  	91  
3  	76  	92  	99  
3  	75  	99  	98  
3  	74  	98  	97  
3  	73  	97  	90  
3  	68  	106  	107  
3  	79  	107  	108  
3  	78  	108  	109  
3  	77  	109  	89  
3  	89  	72  	77  
3  	109  	77  	78  
3  	108  	78  	79  
3  	107  	79  	68  
3  	110  	95  	96  
3  	111  	96  	94  
3  	112  	94  	92  
3  	113  	92  	76  
3  	76  	89  	113  
3  	92  	113  	112  
3  	94  	112  	111  
3  	96  	111  	110  
3  	95  	114  	115  
3  	93  	115  	116  
3  	91  	116  	117  
3  	90  	117  	32  
3  	32  	33  	90  
3  	117  	90  	91  
3  	116  	91  	93  
3  	115  	93  	95  
3  	114  	95  	110  
3  	110  	118  	114  
3  	106  	119  	120  
3  	121  	120  	122  
3  	123  	122  	124  
3  	125  	124  	118  
3  	118  	110  	125  
3  	124  	125  	123  
3  	122  	123  	121  
3  	120  	121  	106  
3  	125  	110  	111  
3  	126  	111  	112  
3  	127  	112  	113  
3  	128  	113  	89  
3  	123  	125  	126  
3  	129  	126  	127  
3  	130  	127  	128  
3  	131  	128  	109  
3  	121  	123  	129  
3  	132  	129  	130  
3  	133  	130  	131  
3  	134  	131  	108  
3  	106  	134  	107  
3  	106  	133  	134  
3  	106  	132  	133  
3  	106  	121  	132  
3  	108  	107  	134  
3  	131  	134  	133  
3  	130  	133  	132  
3  	129  	132  	121  
3  	109  	108  	131  
3  	128  	131  	130  
3  	127  	130  	129  
3  	126  	129  	123  
3  	89  	109  	128  
3  	113  	128  	127  
3  	112  	127  	126  
3  	111  	126  	125  
3  	67  	119  	16  
3  	106  	27  	25  
3  	106  	68  	2  
3  	68  	67  	10  
3  	16  	15  	67  
3  	119  	23  	21  
3  	25  	119  	106  
3  	68  	4  	2  
3  	68  	8  	6  
3  	67  	12  	10  
3  	15  	14  	67  
3  	25  	23  	119  
3  	106  	30  	29  
3  	6  	4  	68  
3  	14  	12  	67  
3  	29  	27  	106  
3  	10  	8  	68  
3  	2  	30  	106  
3  	21  	16  	119  
3  	135  	61  	59  
3  	135  	37  	35  
3  	135  	63  	61  
3  	135  	39  	37  
3  	59  	41  	135  
3  	136  	67  	65  
3  	41  	39  	135  
3  	65  	135  	136  
3  	65  	63  	135  
3  	35  	31  	135  
3  	137  	138  	114  
3  	114  	118  	137  
3  	138  	115  	114  
3  	118  	124  	137  
3  	138  	116  	115  
3  	138  	32  	117  
3  	137  	122  	120  
3  	117  	116  	138  
3  	124  	122  	137  
3  	120  	119  	137  
3  	139  	140  	141  
3  	139  	142  	143  
3  	142  	139  	144  
3  	135  	145  	146  
3  	145  	147  	148  
3  	145  	135  	149  
3  	143  	140  	139  
3  	144  	150  	142  
3  	146  	151  	135  
3  	149  	147  	145  
3  	150  	152  	142  
3  	135  	153  	139  
3  	148  	154  	145  
3  	139  	136  	135  
3  	141  	136  	139  
3  	151  	153  	135  
3  	151  	155  	156  
3  	155  	157  	156  
3  	155  	158  	157  
3  	155  	151  	146  
3  	159  	146  	145  
3  	160  	145  	154  
3  	161  	154  	148  
3  	162  	148  	147  
3  	163  	147  	149  
3  	149  	135  	31  
3  	31  	164  	149  
3  	31  	32  	164  
3  	32  	138  	164  
3  	149  	164  	163  
3  	147  	163  	162  
3  	148  	162  	161  
3  	154  	161  	160  
3  	145  	160  	159  
3  	146  	159  	155  
3  	156  	153  	151  
3  	141  	165  	67  
3  	165  	119  	67  
3  	165  	137  	119  
3  	165  	141  	140  
3  	166  	140  	143  
3  	167  	143  	142  
3  	168  	142  	152  
3  	169  	152  	150  
3  	170  	150  	144  
3  	171  	172  	173  
3  	144  	139  	172  
3  	172  	171  	144  
3  	173  	174  	171  
3  	144  	171  	170  
3  	150  	170  	169  
3  	152  	169  	168  
3  	142  	168  	167  
3  	143  	167  	166  
3  	140  	166  	165  
3  	67  	136  	141  
3  	138  	137  	175  
3  	176  	175  	177  
3  	178  	177  	179  
3  	180  	179  	181  
3  	181  	182  	180  
3  	179  	180  	178  
3  	177  	178  	176  
3  	175  	176  	138  
3  	183  	184  	185  
3  	184  	183  	186  
3  	186  	187  	184  
3  	188  	189  	190  
3  	191  	192  	193  
3  	194  	195  	196  
3  	190  	183  	188  
3  	191  	194  	192  
3  	194  	191  	195  
3  	185  	188  	183  
3  	182  	181  	197  
3  	196  	198  	194  
3  	197  	189  	182  
3  	197  	181  	191  
3  	193  	197  	191  
3  	188  	182  	189  
3  	180  	182  	188  
3  	202  	188  	185  
3  	203  	185  	184  
3  	204  	184  	187  
3  	205  	187  	186  
3  	206  	186  	183  
3  	207  	183  	190  
3  	208  	190  	189  
3  	178  	180  	202  
3  	209  	202  	203  
3  	210  	203  	204  
3  	211  	204  	205  
3  	212  	205  	206  
3  	213  	206  	207  
3  	214  	207  	208  
3  	215  	208  	199  
3  	176  	178  	209  
3  	216  	209  	210  
3  	217  	210  	211  
3  	218  	211  	212  
3  	219  	212  	213  
3  	220  	213  	214  
3  	221  	214  	215  
3  	222  	215  	200  
3  	138  	176  	216  
3  	164  	216  	217  
3  	163  	217  	218  
3  	162  	218  	219  
3  	161  	219  	220  
3  	160  	220  	221  
3  	159  	221  	222  
3  	155  	222  	201  
3  	201  	158  	155  
3  	222  	155  	159  
3  	221  	159  	160  
3  	220  	160  	161  
3  	219  	161  	162  
3  	218  	162  	163  
3  	217  	163  	164  
3  	216  	164  	138  
3  	200  	201  	222  
3  	215  	222  	221  
3  	214  	221  	220  
3  	213  	220  	219  
3  	212  	219  	218  
3  	211  	218  	217  
3  	210  	217  	216  
3  	209  	216  	176  
3  	199  	200  	215  
3  	208  	215  	214  
3  	207  	214  	213  
3  	206  	213  	212  
3  	205  	212  	211  
3  	204  	211  	210  
3  	203  	210  	209  
3  	202  	209  	178  
3  	189  	199  	208  
3  	190  	208  	207  
3  	183  	207  	206  
3  	186  	206  	205  
3  	187  	205  	204  
3  	184  	204  	203  
3  	185  	203  	202  
3  	188  	202  	180  
3  	223  	197  	193  
3  	226  	193  	192  
3  	227  	192  	194  
3  	228  	194  	198  
3  	229  	198  	196  
3  	230  	196  	195  
3  	231  	195  	191  
3  	232  	191  	181  
3  	224  	223  	226  
3  	233  	226  	227  
3  	234  	227  	228  
3  	235  	228  	229  
3  	236  	229  	230  
3  	237  	230  	231  
3  	238  	231  	232  
3  	239  	232  	179  
3  	225  	224  	233  
3  	240  	233  	234  
3  	241  	234  	235  
3  	242  	235  	236  
3  	243  	236  	237  
3  	244  	237  	238  
3  	245  	238  	239  
3  	246  	239  	177  
3  	174  	225  	240  
3  	171  	240  	241  
3  	170  	241  	242  
3  	169  	242  	243  
3  	168  	243  	244  
3  	167  	244  	245  
3  	166  	245  	246  
3  	165  	246  	175  
3  	175  	137  	165  
3  	246  	165  	166  
3  	245  	166  	167  
3  	244  	167  	168  
3  	243  	168  	169  
3  	242  	169  	170  
3  	241  	170  	171  
3  	240  	171  	174  
3  	177  	175  	246  
3  	239  	246  	245  
3  	238  	245  	244  
3  	237  	244  	243  
3  	236  	243  	242  
3  	235  	242  	241  
3  	234  	241  	240  
3  	233  	240  	225  
3  	179  	177  	239  
3  	232  	239  	238  
3  	231  	238  	237  
3  	230  	237  	236  
3  	229  	236  	235  
3  	228  	235  	234  
3  	227  	234  	233  
3  	226  	233  	224  
3  	181  	179  	232  
3  	191  	232  	231  
3  	195  	231  	230  
3  	196  	230  	229  
3  	198  	229  	228  
3  	194  	228  	227  
3  	192  	227  	226  
3  	193  	226  	223  
3  	174  	158  	201  
3  	225  	201  	200  
3  	224  	200  	199  
3  	223  	199  	189  
3  	189  	197  	223  
3  	199  	223  	224  
3  	200  	224  	225  
3  	201  	225  	174  
3  	139  	247  	248  
3  	153  	156  	249  
3  	248  	250  	139  
3  	249  	139  	153  
3  	250  	251  	139  
3  	249  	252  	139  
3  	139  	253  	254  
3  	252  	247  	139  
3  	251  	253  	139  
3  	254  	172  	139  
3  	250  	248  	255  
3  	255  	256  	250  
3  	250  	256  	257  
3  	251  	257  	258  
3  	253  	258  	259  
3  	254  	259  	260  
3  	260  	172  	254  
3  	259  	254  	253  
3  	258  	253  	251  
3  	257  	251  	250  
3  	156  	261  	262  
3  	249  	262  	263  
3  	252  	263  	264  
3  	247  	264  	255  
3  	255  	248  	247  
3  	264  	247  	252  
3  	263  	252  	249  
3  	262  	249  	156  
3  	256  	255  	265  
3  	266  	265  	267  
3  	268  	267  	269  
3  	270  	269  	271  
3  	271  	272  	270  
3  	269  	270  	268  
3  	267  	268  	266  
3  	265  	266  	256  
3  	257  	256  	266  
3  	276  	266  	268  
3  	277  	268  	270  
3  	278  	270  	272  
3  	258  	257  	276  
3  	279  	276  	277  
3  	280  	277  	278  
3  	281  	278  	273  
3  	259  	258  	279  
3  	282  	279  	280  
3  	283  	280  	281  
3  	284  	281  	274  
3  	260  	284  	275  
3  	260  	283  	284  
3  	260  	282  	283  
3  	260  	259  	282  
3  	274  	275  	284  
3  	281  	284  	283  
3  	280  	283  	282  
3  	279  	282  	259  
3  	273  	274  	281  
3  	278  	281  	280  
3  	277  	280  	279  
3  	276  	279  	258  
3  	272  	273  	278  
3  	270  	278  	277  
3  	268  	277  	276  
3  	266  	276  	257  
3  	285  	260  	275  
3  	286  	275  	274  
3  	287  	274  	273  
3  	288  	273  	272  
3  	272  	289  	288  
3  	273  	288  	287  
3  	274  	287  	286  
3  	275  	286  	285  
3  	262  	261  	290  
3  	293  	290  	291  
3  	294  	291  	292  
3  	295  	292  	271  
3  	263  	262  	293  
3  	296  	293  	294  
3  	297  	294  	295  
3  	298  	295  	269  
3  	264  	263  	296  
3  	299  	296  	297  
3  	300  	297  	298  
3  	301  	298  	267  
3  	255  	301  	265  
3  	255  	300  	301  
3  	255  	299  	300  
3  	255  	264  	299  
3  	267  	265  	301  
3  	298  	301  	300  
3  	297  	300  	299  
3  	296  	299  	264  
3  	269  	267  	298  
3  	295  	298  	297  
3  	294  	297  	296  
3  	293  	296  	263  
3  	271  	269  	295  
3  	292  	295  	294  
3  	291  	294  	293  
3  	290  	293  	262  
3  	302  	289  	272  
3  	272  	271  	302  
3  	261  	303  	304  
3  	290  	304  	305  
3  	291  	305  	306  
3  	292  	306  	302  
3  	302  	271  	292  
3  	306  	292  	291  
3  	305  	291  	290  
3  	304  	290  	261  
3  	307  	308  	309  
3  	310  	309  	311  
3  	312  	311  	313  
3  	314  	313  	289  
3  	289  	302  	314  
3  	313  	314  	312  
3  	311  	312  	310  
3  	309  	310  	307  
3  	288  	289  	313  
3  	318  	313  	311  
3  	319  	311  	309  
3  	320  	309  	308  
3  	287  	288  	318  
3  	321  	318  	319  
3  	322  	319  	320  
3  	323  	320  	315  
3  	286  	287  	321  
3  	324  	321  	322  
3  	325  	322  	323  
3  	326  	323  	316  
3  	285  	326  	317  
3  	285  	325  	326  
3  	285  	324  	325  
3  	285  	286  	324  
3  	316  	317  	326  
3  	323  	326  	325  
3  	322  	325  	324  
3  	321  	324  	286  
3  	315  	316  	323  
3  	320  	323  	322  
3  	319  	322  	321  
3  	318  	321  	287  
3  	308  	315  	320  
3  	309  	320  	319  
3  	311  	319  	318  
3  	313  	318  	288  
3  	173  	285  	317  
3  	327  	317  	316  
3  	328  	316  	315  
3  	329  	315  	308  
3  	308  	330  	329  
3  	315  	329  	328  
3  	316  	328  	327  
3  	317  	327  	173  
3  	158  	174  	330  
3  	330  	331  	158  
3  	174  	327  	328  
3  	158  	332  	333  
3  	174  	329  	330  
3  	174  	173  	327  
3  	158  	334  	332  
3  	328  	329  	174  
3  	331  	334  	158  
3  	333  	157  	158  
3  	330  	308  	307  
3  	307  	331  	330  
3  	331  	307  	335  
3  	334  	335  	336  
3  	332  	336  	337  
3  	333  	337  	303  
3  	303  	157  	333  
3  	337  	333  	332  
3  	336  	332  	334  
3  	335  	334  	331  
3  	314  	302  	306  
3  	338  	306  	305  
3  	339  	305  	304  
3  	340  	304  	303  
3  	312  	314  	338  
3  	341  	338  	339  
3  	342  	339  	340  
3  	343  	340  	337  
3  	310  	312  	341  
3  	344  	341  	342  
3  	345  	342  	343  
3  	346  	343  	336  
3  	307  	346  	335  
3  	307  	345  	346  
3  	307  	344  	345  
3  	307  	310  	344  
3  	336  	335  	346  
3  	343  	346  	345  
3  	342  	345  	344  
3  	341  	344  	310  
3  	337  	336  	343  
3  	340  	343  	342  
3  	339  	342  	341  
3  	338  	341  	312  
3  	303  	337  	340  
3  	304  	340  	339  
3  	305  	339  	338  
3  	306  	338  	314  
3  	173  	172  	347  
3  	173  	348  	349  
3  	172  	350  	347  
3  	172  	351  	352  
3  	172  	260  	353  
3  	349  	285  	173  
3  	173  	354  	355  
3  	352  	350  	172  
3  	260  	356  	353  
3  	355  	348  	173  
3  	353  	351  	172  
3  	285  	357  	358  
3  	347  	354  	173  
3  	260  	359  	360  
3  	260  	285  	361  
3  	349  	357  	285  
3  	361  	359  	260  
3  	360  	356  	260  
3  	358  	361  	285  
3  	303  	261  	362  
3  	261  	363  	362  
3  	362  	364  	303  
3  	157  	303  	365  
3  	261  	366  	363  
3  	156  	367  	368  
3  	156  	369  	370  
3  	157  	371  	372  
3  	303  	373  	365  
3  	364  	374  	303  
3  	368  	261  	156  
3  	156  	375  	369  
3  	157  	376  	375  
3  	365  	371  	157  
3  	261  	377  	366  
3  	370  	367  	156  
3  	372  	376  	157  
3  	368  	377  	261  
3  	374  	373  	303  
3  	375  	156  	157  
3  	369  	375  	347  
3  	370  	369  	350  
3  	367  	370  	352  
3  	368  	367  	351  
3  	377  	368  	353  
3  	366  	377  	356  
3  	363  	366  	360  
3  	359  	361  	362  
3  	361  	364  	362  
3  	374  	364  	361  
3  	373  	374  	358  
3  	365  	373  	357  
3  	371  	365  	349  
3  	372  	371  	348  
3  	376  	372  	355  
3  	375  	376  	354  
3  	354  	347  	375  
3  	355  	354  	376  
3  	348  	355  	372  
3  	349  	348  	371  
3  	357  	349  	365  
3  	358  	357  	373  
3  	361  	358  	374  
3  	362  	363  	359  
3  	360  	359  	363  
3  	356  	360  	366  
3  	353  	356  	377  
3  	351  	353  	368  
3  	352  	351  	367  
3  	350  	352  	370  
3  	347  	350  	369  
