OFF
INCH
694	1388
242.7973779013830         -50.75851220685150        0.2509320117025260       
242.8642301424335         -50.71048074838168        0.2387172394752836       
242.9245288058582         -50.66715811551509        0.1990502493784047       
242.3208270332059         -51.10089865157408        -0.2300399437350681      
242.2637984120054         -51.14187185824809        -0.1853613198663435      
242.2211482380372         -51.17251457092753        -0.1179081649242787      
242.9703428366106         -50.63424224242873        0.1370869935165572       
242.1995081146924         -51.18806223131963        -0.03763483224866766     
242.3862742238211         -51.05387683477412        -0.2486478054421286      
242.9972529257429         -50.61490827910966        0.05839470007664606      
243.0014563438514         -50.61188815399841        -0.02590606419873142     
242.2006497548374         -51.18724178746414        0.04780527365660474      
242.9447767852851         -50.65261085689960        -0.1747115728931303      
242.8903605605727         -50.69170675192715        -0.2236102246783988      
242.9829431177178         -50.62518920034358        -0.1071087921795552      
242.2660136397483         -51.14028010330285        0.1897084789620013       
242.3215157719162         -51.10040365729229        0.2323732644280922       
242.2240123116179         -51.17045686136503        0.1262141141209888       
242.8257957064314         -50.73809468271649        -0.2473055642811469      
242.6386218686795         -50.87257296921184        -0.2490425358821692      
242.3853455412159         -51.05454401373348        0.2505014033436177       
242.5128384684068         -50.96294440523330        0.2509714829132182       
243.1521499096931         -51.24242345666745        -0.8490293214502911      
243.2296048549270         -51.17850730169899        -0.8430558037902103      
243.4416777117099         -51.00306138179855        -0.7607884141501157      
243.3009403508532         -51.11949210344760        -0.8153833501314232      
243.5772624387569         -50.89058548112976        -0.6318470970245477      
243.6192056875582         -50.85579082974721        -0.5919589544824408      
243.7410930795047         -50.75452937286153        -0.3627862819047106      
243.6770949388167         -50.80769747865904        -0.4831150651896713      
243.7999987190217         -50.70551921903101        -0.08864688045313601     
243.7511308302144         -50.74617782933927        -0.3160719848855894      
243.7919057458458         -50.71225407456271        0.08294452814160286      
243.7866815395296         -50.71660151767401        0.1937071527689782       
243.7002175517023         -50.78854112662152        0.4609569121436194       
243.7592807093996         -50.73939956097574        0.2784002160541507       
243.5983945146374         -50.87307837670666        0.6065440803082296       
243.5530767981515         -50.91070307539626        0.6713401151122398       
243.3574163384378         -51.07276698988676        0.8078409115767248       
243.4740185114396         -50.97618663892455        0.7264945779631786       
242.8629236508595         -51.45022381613997        0.8509714866619748       
243.0365350852854         -51.32524120661640        0.8509412736776641       
242.7479183660771         -51.53544877828060        0.8499561250581855       
242.7108989537285         -51.56288202136943        0.8496292821672358       
242.5976037825239         -51.65529532713637        0.8162266280375470       
242.4970766771550         -51.73729380654961        0.7865884237539454       
242.3137947411102         -51.88641160392809        0.6387094320646766       
242.4509405701232         -51.77483006626086        0.7493640471064541       
242.2174540407129         -51.96461417385866        0.4855604745878352       
242.1773658104822         -51.99715451128323        0.4218347274197712       
242.1026276871967         -52.05771467835368        0.1589510559410434       
242.1472824780074         -52.02153074302026        0.3160206064601926       
242.0995412695179         -52.06021634278758        -0.08180540865306646     
242.0989334898724         -52.06070906376229        -0.1292229550481909      
242.1369443574343         -52.02990978622484        -0.2769516701401347      
242.1681834098914         -52.00459783196403        -0.3983599809543015      
242.3072141771295         -51.89172879583676        -0.6292088875013675      
242.2002983455636         -51.97852629981126        -0.4516836616212589      
242.4241941591001         -51.79659060154797        -0.7254278559716333      
242.4943563352473         -51.73952854073377        -0.7831381026312727      
242.7173357860363         -51.55748665703047        -0.8481234452483831      
242.5672306400638         -51.68003330802777        -0.8043766572816772      
242.8637948407955         -51.45082176923236        -0.8486194661849737      
242.9887316908477         -51.35983126036248        -0.8490425212978051      
243.1501505727896         -51.24344937814925        0.8509214739063928       
242.6652785207396         -50.90965896745789        -0.4786520867463777      
242.7411747106470         -51.01528165396227        -0.6733058380896318      
242.8739798431374         -50.75892580207361        -0.4737628265608622      
242.8547561718776         -51.17336112114811        -0.8033696555813137      
242.9674822829893         -50.84977331259542        -0.6662272731951512      
243.0922677747900         -50.99700045181495        -0.7958086362601878      
242.9962462173725         -50.66890812196554        -0.4240828171352373      
243.1373525872997         -50.71967444217534        -0.5956423352650444      
243.2933278521268         -50.83668419713533        -0.7135457199017509      
243.0972543838509         -50.59451128807078        -0.3280616997127129      
243.2772557177935         -50.61237214840726        -0.4600530249376610      
243.4597104633940         -50.70370570664753        -0.5523015892743743      
243.1663118794262         -50.54364435568992        -0.2001043028874802      
243.3723374460679         -50.53939840473951        -0.2804622795852765      
243.5730214744156         -50.61302862082363        -0.3372625434237820      
243.1995027493357         -50.51919119817488        -0.04861188960743235     
243.4179613990161         -50.50435632954854        -0.06826941877197833     
243.6275039916955         -50.56937525844432        -0.08223959197067904     
243.1920005426685         -50.52471841432401        0.1074196945690593       
243.4076608246759         -50.51226861147852        0.1498447928040373       
243.6152011471524         -50.57923466454763        0.1799586132599467       
243.1433500113503         -50.56056480022350        0.2553000979086876       
243.3406243724200         -50.56375974998183        0.3573133594427850       
243.5351320454508         -50.64338944342614        0.4291469662814955       
243.0598067097830         -50.62209808938569        0.3736221743752969       
243.2254008501586         -50.65216499538356        0.5235572623123664       
243.3979404569664         -50.75311566919276        0.6276954792987972       
242.9476238457290         -50.70470009516028        0.4526550147145147       
243.0701020041842         -50.77117584722671        0.6352406588029069       
243.2137145851594         -50.90016578379063        0.7597165408468953       
242.8251087277008         -50.79478729446526        0.4804610801631408       
242.9018813874831         -50.89967504279304        0.6750708320146807       
243.0160166556494         -51.05721830283986        0.8051543759451474       
242.5394851472487         -51.00003773672797        0.4805817121029239       
242.6153737105776         -51.10566716982108        0.6752357567761228       
242.7289498918692         -51.26375147695101        0.8052994276028320       
242.4021093475590         -51.09906665940407        0.4804233139327533       
242.4699160842498         -51.21138870851684        0.6751369045847387       
242.5783824579037         -51.37430987977091        0.8048253330796126       
242.2766468502458         -51.19121934151509        0.4487688696075955       
242.2944091517209         -51.34490443279847        0.6308490695349219       
242.3719867088716         -51.53708790601192        0.7497400227631514       
242.1669543574229         -51.27174427795082        0.3676500500324548       
242.1412046815520         -51.46128352837722        0.5165482166147952       
242.1929680302440         -51.67796122529798        0.6120999694594592       
242.0838768638078         -51.33270058711167        0.2446754306457518       
242.0254373255730         -51.54911076712281        0.3433951468938324       
242.0584334243993         -51.78362248469010        0.4059216145827421       
242.0377888628870         -51.36650275662613        0.09261432393529910      
241.9613687856983         -51.59766933950336        0.1298722776949047       
241.9842678811660         -51.84178585278190        0.1533005495495090       
242.0355108625360         -51.36817371065645        -0.07457024681760654     
241.9581937823762         -51.60007611170013        -0.1052779824958902      
241.9805936302779         -51.84466811281912        -0.1245804128459011      
242.0782320223508         -51.33684064595202        -0.2303746515351614      
242.0175889895710         -51.55506023172741        -0.3240727424601528      
242.0493390227919         -51.79075700227154        -0.3833661641641523      
242.1628600580539         -51.27474430996086        -0.3613500651626735      
242.1356097061856         -51.46551789279482        -0.5085863342767285      
242.1864989316423         -51.68302454013947        -0.6030151100941192      
242.2751080413556         -51.19235203509678        -0.4460504066971005      
242.2921851240797         -51.34660295984361        -0.6277905638859629      
242.3693484993485         -51.53917934851806        -0.7464270533871127      
242.4052620578053         -51.09672779308952        -0.4785577445028938      
242.4748856801739         -51.20754520625064        -0.6733072314068691      
242.5844983872519         -51.36938135003903        -0.8031129185471615      
248.4901300015582         -52.99444344301638        -0.8490358480415698      
248.4901320090351         -52.88359897933442        -0.8490293214502989      
248.4901307898825         -52.92604004571826        -0.8490305681025641      
248.4914264557482         -53.23994132950384        -0.8460425626202585      
248.4927150266958         -53.48394573574412        -0.8430675369880084      
248.4995367720571         -53.75600588621538        -0.7623116765532661      
248.4959992770892         -53.61492598931572        -0.8041885594546080      
248.5051627945648         -53.98764942358280        -0.5949619564581796      
248.5075059233301         -54.08776264039971        -0.4507000529839990      
248.5089816204494         -54.15081354536361        -0.3598444025562256      
248.5107137246067         -54.22666206915499        -0.08507378256320812     
248.5103933716407         -54.21260503820968        0.1237636174293265       
248.5102769196527         -54.20749515723946        0.1996790387812342       
248.5091384694708         -54.15815368723634        0.3152499186965675       
248.5076950478120         -54.09559432992737        0.4617808026259591       
248.5039112565227         -53.93597172723463        0.6363541392732106       
248.5031346471608         -53.90320992570175        0.6721845386907124       
248.4997245765542         -53.76438470942250        0.7443544116448482       
248.4964401794959         -53.63067586403849        0.8138644419923797       
248.4952773829286         -53.57822410663233        0.8206520235816581       
248.4909520220622         -53.38311466721989        0.8459003985769423       
248.4901323206981         -53.26956874474541        0.8509711199995357       
248.4900756713525         -53.34358398388172        0.8510159261485979       
248.4887848179312         -53.02619083626778        0.8479715279844120       
248.4874311369024         -52.78169921815581        0.8449580761293983       
248.4839096100834         -52.65115279957252        0.8061304313363309       
248.4800920675173         -52.50963309108693        0.7640390509128825       
248.4788335903887         -52.46365516222789        0.7307799817911540       
248.4737548390589         -52.27810703236239        0.5965602656421014       
248.4710171906844         -52.17833906489046        0.4526305949966055       
248.4692832623816         -52.11514948819518        0.3614704680861704       
248.4686661145109         -52.09268063442396        0.2799601263672601       
248.4672036997382         -52.03943684950071        0.08680713352044914      
248.4675919035869         -52.05351859349386        -0.1218147972945371      
248.4677334169522         -52.05865157419723        -0.1978596321514491      
248.4708136197027         -52.17057608790237        -0.4599430628746263      
248.4751837042191         -52.33006749877731        -0.6344468069924833      
248.4760736306053         -52.36254623691349        -0.6699827031454452      
248.4828880702177         -52.61330627011219        -0.8048299253788274      
248.4798321038538         -52.50085174586312        -0.7443570239669445      
248.4848999469763         -52.68837541624034        -0.8171054902371212      
248.4690901046129         -52.10794955803605        -0.3132961669520818      
248.5094974319907         -54.17340097776500        -0.2780185478154821      
248.5006633423762         -53.80239110370272        -0.7288009303389326      
246.1977649531549         -53.34510775961228        0.8509663533879366       
246.2499778299873         -52.99296940504460        0.8509699466797599       
245.5059035989296         -52.84256175339996        0.8509699466797608       
246.2187493374082         -53.20356969050546        -0.8490269014782513      
245.4502850147736         -53.04802056992218        -0.8490269014782502      
245.5429271178974         -52.70579532833737        -0.8490293214502946      
246.3874131756558         -52.06281282612611        0.2825964659120437       
246.3938023418476         -52.01951446631245        0.08363999510750528      
245.7624297288512         -51.89277642373447        0.08363774930011664      
246.9899835747111         -53.41963017538963        0.8509663533879355       
247.0081522848246         -53.06404188025929        0.8509699466797588       
246.3051465926731         -52.62004226229744        0.8175548993599044       
246.3326374750960         -52.43389170605789        0.7370449960838440       
245.6533007228522         -52.29708049317936        0.7370399361422977       
245.6042574227379         -52.47870951498540        0.8175531393802369       
246.3565196658736         -52.27212852809325        0.6134588937610437       
246.3749126267299         -52.14751976758429        0.4591544362993036       
245.7287255315383         -52.01766824764013        0.4591455264022324       
245.6959095372981         -52.13924778980955        0.6134507905213208       
245.7510297538780         -51.93502136238400        0.2825895909914643       
247.0272888370909         -52.68748369320827        0.8175562193446549       
247.0368034338441         -52.49952692116761        0.7370490293705835       
247.0450669783829         -52.33619281468381        0.6134653103535844       
247.0514301848746         -52.21037245483801        0.4591615128842200       
247.0557541615904         -52.12484096290510        0.2826019108491424       
247.0579639627292         -52.08112079463088        0.08364177342029447      
246.3521631295340         -52.30164016050569        -0.6389750146822386      
245.6881365870919         -52.16804208384207        -0.6389673881036738      
245.7230616236349         -52.03865380521318        -0.4896677261594424      
246.3853688126058         -52.07666621275727        -0.3179175802317850      
245.7473821960149         -51.94853778624112        -0.3179100636519496      
245.7611399570841         -51.89755682184423        -0.1224341359732133      
246.3930794301987         -52.02441402971228        -0.1224374359350928      
246.3717382100677         -52.16902833244885        -0.4896767093890016      
246.2994370719632         -52.65870017905122        -0.8259567946527608      
245.5940718337360         -52.51642866591722        -0.8259556213329807      
245.6439197378888         -52.33182564513373        -0.7548487760986579      
246.3273790958413         -52.46950196135185        -0.7548531760478302      
246.2707656831776         -52.85278045201935        -0.8490293214502956      
247.0435595557968         -52.36599110378476        -0.6389810279461071      
247.0550469430935         -52.13882928131085        -0.3179235201631673      
247.0577138989513         -52.08606817081171        -0.1224400575714750      
247.0503321042264         -52.23209023728567        -0.4896838226401630      
247.0253126732530         -52.72651648563145        -0.8259577479750824      
247.0349836148668         -52.53548279246898        -0.7548566226746823      
247.0153868279172         -52.92247916685384        -0.8490293214502967      
246.0747469209364         -54.17700805609573        -0.08169870988566559     
245.1935441673324         -53.99775808680667        -0.08169649157795705     
245.2049632087520         -53.95551813476620        -0.2806485074339595      
246.1360332262851         -53.76264804948455        -0.7351037841944902      
245.3028192516440         -53.59349266358200        -0.7350987242529419      
245.3519018579709         -53.41187412832149        -0.8156117808259087      
246.9972845570362         -53.27670583813044        -0.8490269014782525      
246.1635566683319         -53.57650233318908        -0.8156135408055784      
246.9781323116179         -53.65327216967071        -0.8156149341228172      
246.9685954217889         -53.84122776839160        -0.7351077441487457      
246.0936813688707         -54.04900898808522        -0.4572133344086795      
245.2273023373552         -53.87288048940334        -0.4572044978440922      
245.2601635044068         -53.75131282709668        -0.6115096886306943      
246.1121115826300         -53.92440558084775        -0.6115177552041765      
246.0811517802802         -54.13371189625666        -0.2806553090220548      
246.9539167513582         -54.13037981474915        -0.4572203009948687      
246.9603051842251         -54.00456062822312        -0.6115240617979900      
246.9495732682011         -54.21591042669223        -0.2806606622935480      
246.0968628254516         -54.02750144987547        0.4916183246070292       
246.1164754522182         -53.89489974170172        0.6409151265842995       
245.2679446678515         -53.72252549965034        0.6409075000057369       
246.9473527605193         -54.25963015497152        -0.08170045153221385     
246.0754717392299         -54.17210878602585        0.1243789044881480       
246.0832012766043         -54.11985924295036        0.3198591587835694       
245.2086169265440         -53.94200332422378        0.3198517155362224       
245.1948362857391         -53.99297827535680        0.1243756320259530       
245.2329747518270         -53.85189705847238        0.4916094147099583       
246.9476039976169         -54.25468285212320        0.1243814802917242       
246.9502837133273         -54.20192225495145        0.3198650253824634       
246.9550195252855         -54.10866225229896        0.4916253278594591       
246.9618177400853         -53.97476725239874        0.6409210665156797       
246.1413002587732         -53.72702969095087        0.7567997412086760       
246.1692672156965         -53.53787459275338        0.8278928732680814       
245.3620859803230         -53.37418539203832        0.8278916266158171       
245.3122116764752         -53.55874083837139        0.7567954145919917       
245.4129086198822         -53.18610404185346        0.8509663533879376       
246.9704206673701         -53.80526287719442        0.7568031878355256       
246.9801105287654         -53.61426922356940        0.8278938265904006       
244.7060644120735         -52.79477652708564        -0.8490269014782493      
244.0062442831220         -52.43338292526870        -0.8490269014782482      
244.1936301984239         -52.13257776019564        -0.8490293214502928      
243.3728542934306         -51.96440194964362        -0.8490269014782472      
243.6057494696723         -51.69732129498213        -0.8490293214502919      
243.0016012488441         -52.39005567245550        -0.7350877243800099      
243.1252163541652         -52.24833785625847        -0.8156079675366236      
243.8070480242542         -52.75320995059961        -0.8156087741939727      
242.8114471788535         -52.60805251080409        -0.4571851380677344      
242.8941861697122         -52.51319932322286        -0.6114921255002482      
243.6212361174359         -53.05157513760951        -0.6114956087933434      
243.7076282394267         -52.91285376471398        -0.7350898510221106      
242.7552064418846         -52.67252826597466        -0.2806336392723808      
243.5546906995075         -53.15842799031957        -0.4571889880232606      
242.7264595206381         -52.70548410526599        -0.08169164246730409     
243.5094562887260         -53.23106103125649        -0.2806365725718295      
242.8257282405441         -52.59168048326848        0.4915899449348784       
243.5661769134845         -53.13998469358644        0.4915937948904022       
243.6369943887283         -53.02627188699815        0.6408942268257389       
242.7297125497255         -52.70175489167951        0.1243684729419923       
243.4889513522674         -53.26398544757749        0.1243698937589111       
243.5168540699329         -53.21918247931186        0.3198386990199261       
243.4863348491602         -53.26818647321355        -0.08169259578962572     
242.7644040956325         -52.66198378778537        0.3198354723905349       
243.0252542022698         -52.36293893237706        0.7567859547012767       
243.7266515663343         -52.88230693426024        0.7567877880134304       
243.8276793859190         -52.72008093664214        0.8278894999737199       
242.9137788500426         -52.49073758270281        0.6408909268638615       
243.1508692311543         -52.21892881599421        0.8278889866463176       
243.9306373165402         -52.55475427650983        0.8509663533879398       
244.3208189424620         -53.69980837874712        -0.08169419077120159     
244.8449860605721         -52.46867741087712        -0.8490293214502938      
244.4847918482330         -53.31457827229152        -0.7350935176464212      
244.5584522773015         -53.14150458040358        -0.8156100208462391      
244.3714714506533         -53.58081362338469        -0.4571953312833172      
244.4207808010275         -53.46497029495004        -0.6115013653935105      
244.3379523445355         -53.65955863371561        -0.2806414675152840      
244.3799827123305         -53.56081845770389        0.4916001748166995       
244.4324570928086         -53.43753818851474        0.6408996534297159       
244.3227575600670         -53.69525380802858        0.1243722403984680       
244.3434343878732         -53.64668049581829        0.3198440156251737       
244.4988869387387         -53.28146166985734        0.7567909413103354       
244.5737371140631         -53.10558863062020        0.8278903799635530       
244.6500140462388         -52.92635394542540        0.8509663533879387       
244.7894675019272         -52.59899917538898        0.8509699466797619       
244.1187433568565         -52.25279111814733        0.8509699466797630       
243.2788836989869         -52.07216477142498        0.8509663533879409       
243.5126758781997         -51.80405702196190        0.8509699466797638       
244.3179296425062         -51.93296841943310        0.8175501327483050       
243.7603041375769         -51.52012478197137        0.8175493260909578       
244.4173423874150         -51.77331985704026        0.7370312095764429       
243.9913231754919         -51.25525326845636        0.6134335207208255       
244.5037248295176         -51.63459283296001        0.6134369673476756       
244.5702617408776         -51.52773464072830        0.4591303099113496       
243.8839142562889         -51.37840241916020        0.7370290829343441       
244.0740557130919         -51.16039476426990        0.4591265332883116       
244.6154894050704         -51.45509734650719        0.2825779127930402       
244.9370547036540         -52.25227023749792        0.8175513060680831       
245.0106837464183         -52.07918335034574        0.7370347295357792       
245.0746569540610         -51.92877534120524        0.6134425406166253       
245.1239302248520         -51.81291675961346        0.4591364331739458       
245.1574211712951         -51.73416001608474        0.2825826244052771       
245.1745393202114         -51.69390385446069        0.08363548515960635      
244.6386070313469         -51.41796954874400        0.08363395434395793      
244.1302920501116         -51.09591482914761        0.2825750161598364       
244.1210949830236         -51.10646004066176        -0.3178941138362008      
244.1557838889611         -51.06668626013187        -0.1224271235542190      
244.6359911148996         -51.42217076687784        -0.1224285260380181      
244.1590363313886         -51.06295671654920        0.08363300102163818      
244.0597758247211         -51.17676770846158        -0.4896486230467874      
244.6080927971833         -51.46697662261010        -0.3178973037993507      
243.9717284418520         -51.27771970225553        -0.6389511082917374      
244.5587772868803         -51.54617893432491        -0.4896524363360699      
243.7346327808013         -51.54955692196877        -0.8259529813634752      
243.8602686361118         -51.40551314597477        -0.7548394628729092      
244.3983252204362         -51.80385990423903        -0.7548412961850648      
244.4879659715653         -51.65990119392900        -0.6389543349211304      
244.2972839076741         -51.96612342975693        -0.8259534946908794      
245.0629865288788         -51.95621496422037        -0.6389596148601370      
245.1519441145665         -51.74704013395919        -0.3179024370733849      
245.1726021692562         -51.69845912183786        -0.1224307810119693      
245.1154257097635         -51.83291482192747        -0.4896585962649108      
244.9217631203036         -52.28821569558626        -0.8259543013482283      
244.9965995091206         -52.11229428784537        -0.7548443761494856      
248.7401320060138         -53.75003720849939        0.4750321295454995       
248.7401320060138         -53.88604565065159        0.3265739212140572       
248.7401320060138         -53.96522383597844        0.1413800055899735       
248.7401320060138         -53.97879027259114        -0.05985554263646800     
248.7401320060138         -53.92504372014257        -0.2541434886222035      
248.7401320060138         -53.80961794688428        -0.4200937865502008      
248.7401320060138         -53.64620948125949        -0.5379095755321529      
248.7401320060138         -52.51573941387951        -0.4729186596460923      
248.7401320060138         -52.69285001788269        -0.5679326287032807      
248.7401320060138         -52.37996688233537        -0.3247310481886918      
248.7401320060138         -52.30072035113140        -0.1395415783465835      
248.7401320060138         -52.28710962169704        0.06165812404395225      
248.7401320060138         -52.34079794815158        0.2558858594752452       
248.7401320060138         -52.45614107569793        0.4218156243071092       
248.7401320060138         -52.61951841168234        0.5397080090708870       
248.7401320060138         -53.49712600348455        0.5899719284178014       
248.7388280902434         -53.38859592223331        0.6263950743211787       
248.7401320060138         -53.55756058867239        0.5748783427801907       
248.7378859877933         -53.34413641583332        0.6321938406666683       
248.7363057460484         -53.26956282314715        0.6419202216400187       
248.7340620011350         -53.16367695093312        0.6557305621017872       
248.7366729493064         -52.93200221517611        0.6424210091882115       
248.7401320060138         -52.72511062853870        0.5797223568217272       
248.7386807652786         -52.81191172580502        0.6060274896092552       
248.7391101453184         -52.83361438342740        -0.6196178049650473      
248.7401320060138         -52.72507924223461        -0.5777596218476839      
248.7370781937917         -52.92619398893989        -0.6335462107295821      
248.7355783427847         -52.99452976451919        -0.6438272786284751      
248.7342417207255         -53.05542874142567        -0.6529894394530781      
248.7362118437998         -53.28758093583372        -0.6431147801926511      
248.7401320060138         -53.49699627831647        -0.5881138389015518      
248.7393299869454         -53.45415254325096        -0.5993663422450062      
248.5858030830013         -53.26956846974859        0.8319409731707490       
248.5839282509095         -52.78387631300583        0.8268405520912485       
248.6659512073317         -52.79031989190239        0.7732178582118505       
248.7208426471794         -52.80003560299900        0.6923647589004196       
248.6669088127277         -53.26956768142436        0.7777477525487912       
248.5857638272048         -53.34363285998377        0.8320020591317454       
248.7211019233509         -53.26956650810459        0.6966419494899490       
248.6668887815007         -53.34377215504129        0.7778127984640419       
248.5901569289553         -53.62459000100957        0.7939721251234549       
248.7210964967469         -53.34398067596577        0.6967003221489564       
248.6691250831668         -53.60862071548812        0.7417745747806771       
248.5947414559945         -53.88934414588043        0.6543376115266044       
248.7217008572653         -53.58512264027322        0.6649683287196523       
248.6714475596707         -53.85563532862089        0.6109501527422306       
248.7223268508671         -53.80688499178895        0.5482023676099989       
248.5978438693218         -54.07561592071966        0.4488901615397448       
248.6730127865891         -54.02927323607430        0.4189885469657479       
248.7227477793378         -53.96301139487008        0.3762344975308419       
248.5995930599483         -54.18374870489384        0.1939647881260787       
248.6738930307954         -54.13002437218858        0.1810368208043936       
248.7229841666071         -54.05369222065077        0.1626686279953242       
248.5998884752857         -54.20225533110371        -0.08259066208176129     
248.6740415336632         -54.14726425303201        -0.07699592504597437     
248.7230240228133         -54.06921524132752        -0.06905529094352383     
248.5987161500785         -54.12898657084402        -0.3496254472731359      
248.6734519473492         -54.07898892175446        -0.3262175710162533      
248.7228657438084         -54.00772683164687        -0.2928540764341898      
248.5961232233655         -53.97114946752504        -0.5787551836802020      
248.6721453251517         -53.93188336779704        -0.5401867692258170      
248.7225145911983         -53.87538523380164        -0.4846925203001161      
248.5922820952385         -53.74649312277430        -0.7428694744845770      
248.6702030890469         -53.72242686745641        -0.6936828826922824      
248.7219916297396         -53.68729972658146        -0.6218899387171642      
248.5875898015277         -53.48159726287388        -0.8234425170312470      
248.6678195884563         -53.47513828415522        -0.7694670938932745      
248.5858014742699         -52.99444513883012        -0.8300062878726728      
248.7213482380054         -53.46553928171038        -0.6892522072091571      
248.6669079923205         -52.99444997877421        -0.7758132139156878      
248.5858020242636         -52.92604107237307        -0.8300007879362086      
248.7211016941869         -52.99445722952378        -0.6947071175269011      
248.6669082719006         -52.92604400567252        -0.7758077139792235      
248.5807605716695         -52.61868586796662        -0.7888084637934522      
248.7211017766859         -52.92604836895544        -0.6947016909229230      
248.6643287581577         -52.63577109059667        -0.7379252516006615      
248.5759742702946         -52.37163227861743        -0.6582946048340211      
248.7204027072616         -52.66186531915391        -0.6602112960255746      
248.6618664045197         -52.40423502198775        -0.6163553159869314      
248.7197334016602         -52.45503397515392        -0.5510087008766057      
248.5722501716490         -52.18160133387112        -0.4528236517853376      
248.6599413121752         -52.22583020960204        -0.4242632883837595      
248.7192087718874         -52.29585936061931        -0.3790426641096034      
248.5700570628173         -52.07042950480424        -0.1950221599301704      
248.6588038061491         -52.12132701683184        -0.1827601615818218      
248.7188982088084         -52.20269813682572        -0.1631566280435142      
248.5696789605186         -52.05131517228131        0.08560098828727500      
248.6586074080012         -52.10334926451237        0.08031738265727130      
248.7188445477616         -52.18667770189515        0.07185611081927218      
248.5711617158896         -52.12658458942924        0.3561197998975457       
248.6593771172345         -52.17413990006624        0.3338679002867221       
248.7190547828330         -52.24979673273872        0.2984668259096208       
248.5743357933891         -52.28814859636138        0.5867042694994098       
248.6610204295008         -52.32591424008945        0.5496363477112053       
248.7195030001551         -52.38517150887775        0.4914738962754739       
248.5788018609634         -52.51669401951849        0.7496241574349619       
248.6633226754050         -52.54020892453897        0.7016184386677882       
248.7201294704181         -52.57641496961698        0.6277037658697289       
248.7401320060138         -53.80493104769441        0.1399684468964201       
248.7401320060138         -53.69664026867873        0.3961688705805967       
248.7401320060138         -53.80490039471518        -0.1381781899298963      
248.7401320060138         -53.69655318635137        -0.3943547805560611      
248.8635953222550         -53.39718396302352        -0.4326158218945801      
248.9401319980968         -53.38896020135845        -0.4198039765647774      
248.9401319980968         -53.48428291851562        -0.3272507524141873      
248.9401319980968         -53.53150086304990        -0.2814046386990718      
248.9401319980968         -53.58691873619124        -0.1503743998715719      
248.9401319980968         -53.60889171569083        -0.09842136753743473     
248.9401319980968         -53.60890843549768        0.05323570467379243      
248.9401319980968         -53.60891360543796        0.1002547990052025       
248.9401319980968         -53.54622063633916        0.2485773972365576       
248.9401319980968         -53.53156304899819        0.2832551016367572       
248.9401319980968         -53.40935191245833        0.4019678935897879       
248.8635953222550         -53.39727946025366        0.4344958744904435       
248.7987106468083         -53.42070676961939        0.4709757064056458       
248.7987106468083         -53.42060324248201        -0.4691007870838154      
248.7553560959771         -53.45576820458670        0.5255716323755169       
248.7553560959771         -53.45565266925470        -0.5237044496309794      
248.9401319980968         -53.38905287528787        0.4216858624727954       
248.8635953222550         -53.54406473457765        -0.2900024510430765      
248.8635953222550         -53.62381197999733        -0.1014476800772139      
248.8635953222550         -53.62383452973683        0.1032778207496640       
248.8635953222550         -53.54412882717058        0.2918501640125299       
248.7987106468083         -53.57984358125736        -0.3144869765290820      
248.7987106468083         -53.66630133582333        -0.1100658696858187      
248.7987106468083         -53.66632579220748        0.1118866604662798       
248.7987106468083         -53.57991306378803        0.3163268062562702       
248.7553560959771         -53.63339041267979        -0.3511306332184329      
248.7553560959771         -53.72989112456200        -0.1229639173531381      
248.7553560959771         -53.72991840424687        0.1247706924621761       
248.7553560959771         -53.63346796178394        0.3529586564153446       
248.7553560959771         -52.76816354452107        0.5164427278334012       
248.7987106468083         -52.80466207622025        0.4627968608883671       
248.8635953222550         -52.82904958282703        0.4269518316398703       
248.9401319980968         -52.83761333223120        0.4143647503802404       
248.9292059893150         -53.15087740254459        0.4999451550814357       
248.9330557248425         -53.01534025911457        0.4859265870251302       
248.9377849552100         -53.31174510835380        0.4622723502808915       
248.9329607042735         -53.22128339087528        0.4834571155526753       
248.9339057033568         -52.98541521481124        0.4828314427805006       
248.7598271134942         -52.95068034773806        0.5788858898179987       
248.8044003310806         -52.96706409013833        0.5272477196798799       
248.8649082120884         -52.97913756899781        0.4938602453748320       
248.7595564432877         -53.15933154738159        0.5937043319674239       
248.8042047533399         -53.15547713461643        0.5436266404691893       
248.8629660378579         -53.15254888365217        0.5111514222923474       
248.7590441792054         -53.36067441311830        0.5616148060016994       
248.8033222885342         -53.33655196678285        0.5083011718853502       
248.8657017062552         -53.31947594737982        0.4736312590618081       
248.9401319980968         -52.82693758889163        0.4035450920365235       
248.9401319980968         -52.69043341913278        0.2490930529463255       
248.9401319980968         -52.70174777842834        0.2766679927316015       
248.9401319980968         -52.62831563338941        0.05323472843507013      
248.9401319980968         -52.62831684337543        0.09770503762693022      
248.9401319980968         -52.65077356062019        -0.1504889360484401      
248.9401319980968         -52.62831160010267        -0.09573705021356409     
248.8635953222550         -52.82902644642764        -0.4249947432672641      
248.9401319980968         -52.75365042217791        -0.3273270181998250      
248.9401319980968         -52.70173281860116        -0.2747039927721719      
248.7987106468083         -52.80463699650998        -0.4608384525310091      
248.7553560959771         -52.76813556817759        -0.5144823394989159      
248.7401320060138         -52.53489888254769        0.3869469071135057       
248.7401320060138         -52.43209557347362        0.1363987773002147       
248.7401320060138         -52.43208824022500        -0.1344201383432288      
248.7401320060138         -52.53487794612288        -0.3849738322589095      
248.9401319980968         -52.83759089249043        -0.4124081020025514      
248.8635953222550         -52.68904717848009        0.2850624724245225       
248.8635953222550         -52.61338040925573        0.1006504277681987       
248.8635953222550         -52.61337498265175        -0.09868162453092354     
248.8635953222550         -52.68903174199174        -0.2830977758064739      
248.7987106468083         -52.65287886296622        0.3089679279333273       
248.7987106468083         -52.57084496396215        0.1090381700389511       
248.7987106468083         -52.57083909736326        -0.1070670659949214      
248.7987106468083         -52.65286214315937        -0.3070012696712729      
248.7553560959771         -52.59874918494354        0.3447449779671257       
248.7553560959771         -52.50718620602022        0.1215913258571572       
248.7553560959771         -52.50717964276271        -0.1196167660197158      
248.7553560959771         -52.59873052182581        -0.3427753864056235      
248.9330757079450         -53.23937855767170        -0.4842897782859598      
248.9368604342235         -53.31960856918109        -0.4497019978469509      
248.9304896378195         -53.11845017342601        -0.4935378481181346      
248.9295294955778         -53.07355271872261        -0.4969714217865319      
248.9382112919516         -52.91556604004820        -0.4555569368768622      
248.9382926543450         -52.91408534715329        -0.4551687880274575      
248.7598457582788         -53.27081888030374        -0.5798526776685246      
248.8044475572017         -53.25608584300105        -0.5285180306907470      
248.8646185854342         -53.24516512332480        -0.4953244841454293      
248.7595989211303         -53.06159270355239        -0.5908602505081038      
248.8042475611787         -53.06705656043345        -0.5406839268159435      
248.8631188810922         -53.07120002923441        -0.5081567525726360      
248.7588638271222         -52.86330775207374        -0.5549455187314833      
248.8030844346153         -52.88875537143400        -0.5015474055910429      
248.8657420391226         -52.90648720326103        -0.4667047947625232      
268.6401326436749         -53.52337855687942        0.2948633042044493       
265.3901318946276         -53.55188278426283        0.2509706762558375       
267.8901325610732         -53.55188278426282        0.2509706762558340       
268.6401326436749         -53.54440345733131        0.2476406663910577       
268.6401326436749         -53.31970842969411        -0.4480156073283060      
268.6401326436749         -53.36887007010797        -0.4320420318564129      
268.6401326436749         -53.48496421397852        -0.3275103860815716      
268.6401326436749         -53.11887007312927        -0.4990293146802722      
268.6401326436749         -53.17113430561840        -0.4962902729885822      
268.6401326436749         -52.96436156802471        -0.4745575673799853      
268.6401326436749         -52.91959533016811        -0.4487117892859526      
268.6401326436749         -52.75392120238310        -0.3287823380545404      
268.6401326436749         -52.78430475805634        -0.3706017282867092      
268.6401326436749         -52.82907101424607        0.3983889016012475       
265.3901318946276         -52.68585736199574        0.2509706762558376       
268.6401326436749         -52.78430475805634        0.3725430868409717       
267.8901325610732         -52.68585736199573        0.2509706762558340       
268.6401326436749         -53.01577001498327        0.4819021735154705       
268.6401326436749         -52.96436156802471        0.4764989259342476       
268.6401326436749         -53.17113430561840        0.4982316315428446       
268.6401326436749         -53.22029595061555        0.4822580560709515       
268.6401326436749         -53.40728443134200        0.3993949499792907       
268.6401326436749         -53.36887007010797        0.4339833904106753       
265.1591615494834         -52.62810832245091        0.09664153324593394      
265.1504836763976         -52.62389551778426        0.05301388306960502      
265.3409944356010         -52.68307828076659        0.2460941392566758       
265.2944605731642         -52.67541441263359        0.2319405660932942       
265.2133548434379         -52.65116288278932        0.1777473821375798       
265.1401314759871         -52.61887007917188        0.0009706792771382428    
265.1591615494834         -52.62810832245091        -0.09470017469166155     
268.6401326436749         -52.66209734314016        -0.2023976480612640      
268.0669084389432         -52.65116288278931        -0.1758060235833116      
268.0820536506511         -52.64472018388259        -0.1531406020828616      
268.6401326436749         -52.65135006396032        -0.1518356138248647      
265.3901318946276         -52.68585736199574        -0.2490293177015658      
267.8901325610732         -52.68585736199573        -0.2490293177015694      
267.9392700200997         -52.68307828076658        -0.2441527807024076      
267.9858027092168         -52.67541441263357        -0.2299992075390260      
265.2944605731642         -52.67541441263359        -0.2299992075390222      
265.3411962466030         -52.68310094050482        -0.2441930769035655      
265.2133548434379         -52.65116288278932        -0.1758060235833075      
265.1982108050497         -52.64472018388260        -0.1531406020828575      
268.6401326436749         -52.62961735835172        0.05153270893025014      
268.6401326436749         -52.61887007917187        0.0009706792771312922    
268.1401318063939         -52.61887007917187        0.0009706792771353411    
268.1211017328976         -52.62810832245090        -0.09470017469166572     
268.6401326436749         -52.69248089881340        0.2461583968476953       
267.9858027092168         -52.67541441263357        0.2319405660932904       
267.9390682090977         -52.68310094050481        0.2461344354578337       
268.0669084389432         -52.65116288278931        0.1777473821375758       
268.1211017328976         -52.62810832245090        0.09664153324592976      
268.6401326436749         -52.66209734314016        0.2043390066155265       
268.1297796059835         -52.62389551778424        0.05301388306960081      
268.6401326436749         -53.60794385664052        0.1049265275369679       
268.1211017328976         -53.60963182380765        0.09664153324592967      
268.1297796059835         -53.61384462847431        0.05301388306960070      
268.6401326436749         -53.60794385664052        0.05323491176625762      
267.9392700200997         -53.55466186549197        0.2460941392566721       
267.9858027092168         -53.56232573362498        0.2319405660932903       
268.0669084389432         -53.58657726346924        0.1777473821375757       
268.6401326436749         -53.60794385664052        -0.1029851689827055      
268.1401318063939         -53.61887006708668        0.0009706792771350082    
268.1211017328976         -53.60963182380765        -0.09470017469166583     
268.6401326436749         -53.58691899285488        -0.1502078067960972      
265.2133548434379         -53.58657726346924        -0.1758060235833077      
265.1982108050497         -53.59301996237597        -0.1531406020828576      
267.8901325610732         -53.55188278426282        -0.2490293177015694      
265.3901318946276         -53.55188278426283        -0.2490293177015659      
267.9390682090977         -53.55463920575374        -0.2441930769035692      
265.3409944356010         -53.55466186549198        -0.2441527807024040      
267.9858027092168         -53.56232573362498        -0.2299992075390261      
265.2944605731642         -53.56232573362499        -0.2299992075390223      
268.0669084389432         -53.58657726346924        -0.1758060235833117      
268.6401326436749         -53.52337855687942        -0.2929219456501869      
268.0820536506511         -53.59301996237596        -0.1531406020828617      
265.1591615494834         -53.60963182380766        -0.09470017469166166     
265.1401314759871         -53.61887006708669        0.0009706792771386044    
265.2944605731642         -53.56232573362499        0.2319405660932941       
265.3411962466030         -53.55463920575374        0.2461344354578373       
265.2133548434379         -53.58657726346924        0.1777473821375797       
265.1591615494834         -53.60963182380766        0.09664153324593384      
265.1504836763976         -53.61384462847432        0.05301388306960492      
269.7195469475221         -52.57879061217329        0.0009706792771297688    
269.8893662124221         -52.82544083618220        0.0009706792771295009    
269.8893662124221         -52.85080912812552        -0.1183777403330762      
269.7195469475221         -52.62548294611280        -0.2186994230751028      
269.8893662124221         -52.92252758462779        -0.2170897383369852      
269.7195469475221         -52.75748637119797        -0.4003865608764497      
269.8893662124221         -53.02819545311022        -0.2780971052413435      
269.7195469475221         -52.95197633443332        -0.5126754270392192      
269.8893662124221         -53.14954177964044        -0.2908511095726637      
269.7195469475221         -53.17532374930492        -0.5361501825235073      
269.8893662124221         -53.26558469160282        -0.2531464968062345      
269.7195469475221         -53.38890980360726        -0.4667518375524438      
269.8893662124221         -53.35625930245531        -0.1715026899624581      
269.7195469475221         -53.55580354230322        -0.3164800801712749      
269.8893662124221         -53.40588717248325        -0.06003668762722882     
269.7195469475221         -53.64714751375654        -0.1113181502193968      
269.8893662124221         -53.40588717248325        0.06197804618148769      
269.7195469475221         -53.64714751375654        0.1132595087736561       
269.8893662124221         -53.35625930245531        0.1734440485167170       
269.7195469475221         -53.55580354230322        0.3184214387255342       
269.8893662124221         -53.26558469160282        0.2550878553604935       
269.7195469475221         -53.38890980360726        0.4686931961067032       
269.8893662124221         -53.14954177964044        0.2927924681269227       
269.7195469475221         -53.17532374930492        0.5380915410777668       
269.8893662124221         -53.02819545311022        0.2800384637956024       
269.7195469475221         -52.95197633443332        0.5146167855934787       
269.8893662124221         -52.92252758462779        0.2190310968912442       
269.7195469475221         -52.75748637119797        0.4023279194307093       
269.8893662124221         -52.85080912812552        0.1203190988873351       
269.7195469475221         -52.62548294611280        0.2206407816293623       
269.4667645876855         -52.41824079352516        0.0009706792771301444    
269.4667645876855         -52.47881335378578        -0.2840009203732999      
269.4667645876855         -52.65005757889121        -0.5196983325766814      
269.4667645876855         -52.90236371756250        -0.6653673764621229      
269.4667645876855         -53.19210577418754        -0.6958204513322700      
269.4667645876855         -53.46918471293133        -0.6057920646812084      
269.4667645876855         -53.68569106849810        -0.4108488700149616      
269.4667645876855         -53.80418892293411        -0.1446983371086290      
269.4667645876855         -53.80418892293411        0.1466396956628890       
269.4667645876855         -53.68569106849810        0.4127902285692215       
269.4667645876855         -53.46918471293133        0.6077334232354683       
269.4667645876855         -53.19210577418754        0.6977618098865300       
269.4667645876855         -52.90236371756250        0.6673087350163830       
269.4667645876855         -52.65005757889121        0.5216396911309417       
269.4667645876855         -52.47881335378578        0.2859422789275602       
269.1713203206829         -52.36938654456029        0.0009706792771305681    
269.1713203206829         -52.43418283602800        -0.3038717324906490      
269.1713203206829         -52.61736771652729        -0.5560041098359108      
269.1713203206829         -52.88726692362862        -0.7118305463822853      
269.1713203206829         -53.19721243311164        -0.7444071100550419      
269.1713203206829         -53.49361183741377        -0.6481010959236686      
269.1713203206829         -53.72521496858131        -0.4395646982872625      
269.1713203206829         -53.85197559756503        -0.1548557022698795      
269.1713203206829         -53.85197559756503        0.1567970608241404       
269.1713203206829         -53.72521496858131        0.4415060568415233       
269.1713203206829         -53.49361183741377        0.6500424544779295       
269.1713203206829         -53.19721243311164        0.7463484686093028       
269.1713203206829         -52.88726692362862        0.7137719049365463       
269.1713203206829         -52.61736771652729        0.5579454683901718       
269.1713203206829         -52.43418283602800        0.3058130910449101       
268.8803112024451         -52.44001628863946        0.0009706792771309721    
268.8803112024451         -52.49870625731459        -0.2751440426887059      
268.8803112024451         -52.66462823056980        -0.5035160161828471      
268.8803112024451         -52.90909270649531        -0.6446576223696352      
268.8803112024451         -53.18982961631524        -0.6741642681730117      
268.8803112024451         -53.45829696537419        -0.5869339558650232      
268.8803112024451         -53.66807433200815        -0.3980495645402965      
268.8803112024451         -53.78288928232271        -0.1401709635759003      
268.8803112024451         -53.78288928232271        0.1421123221301619       
268.8803112024451         -53.66807433200815        0.3999909230945580       
268.8803112024451         -53.45829696537419        0.5888753144192848       
268.8803112024451         -53.18982961631524        0.6761056267272735       
268.8803112024451         -52.90909270649531        0.6465989809238970       
268.8803112024451         -52.66462823056980        0.5054573747371089       
268.8803112024451         -52.49870625731459        0.2770854012429679       
269.9491492018039         -53.11887007312927        0.0009706792771293837    
3  	0  	1  	2  
3  	3  	4  	5  
3  	2  	6  	0  
3  	7  	8  	3  
3  	6  	9  	0  
3  	5  	7  	3  
3  	9  	10  	0  
3  	7  	11  	8  
3  	0  	12  	13  
3  	10  	14  	0  
3  	8  	15  	16  
3  	11  	17  	8  
3  	14  	12  	0  
3  	0  	18  	19  
3  	8  	20  	21  
3  	17  	15  	8  
3  	19  	21  	0  
3  	16  	20  	8  
3  	21  	19  	8  
3  	13  	18  	0  
3  	65  	19  	18  
3  	66  	65  	67  
3  	68  	66  	69  
3  	68  	70  	22  
3  	70  	23  	22  
3  	71  	67  	18  
3  	69  	67  	71  
3  	70  	69  	72  
3  	73  	24  	25  
3  	25  	70  	73  
3  	74  	71  	13  
3  	72  	71  	74  
3  	73  	72  	75  
3  	73  	76  	26  
3  	76  	27  	26  
3  	74  	12  	14  
3  	75  	74  	77  
3  	76  	75  	78  
3  	79  	28  	29  
3  	29  	76  	79  
3  	77  	14  	10  
3  	78  	77  	80  
3  	79  	78  	81  
3  	82  	30  	31  
3  	31  	79  	82  
3  	80  	10  	9  
3  	81  	80  	83  
3  	82  	81  	84  
3  	82  	85  	32  
3  	85  	33  	32  
3  	83  	9  	6  
3  	84  	83  	86  
3  	85  	84  	87  
3  	88  	34  	35  
3  	35  	85  	88  
3  	86  	6  	2  
3  	87  	86  	89  
3  	88  	87  	90  
3  	88  	91  	36  
3  	91  	37  	36  
3  	92  	89  	2  
3  	90  	89  	92  
3  	91  	90  	93  
3  	94  	38  	39  
3  	39  	91  	94  
3  	95  	92  	1  
3  	93  	92  	95  
3  	94  	93  	96  
3  	38  	94  	97  
3  	98  	95  	0  
3  	96  	95  	98  
3  	97  	96  	99  
3  	100  	40  	41  
3  	41  	97  	100  
3  	98  	21  	20  
3  	99  	98  	101  
3  	100  	99  	102  
3  	100  	103  	42  
3  	103  	43  	42  
3  	104  	101  	20  
3  	102  	101  	104  
3  	103  	102  	105  
3  	103  	106  	44  
3  	106  	45  	44  
3  	107  	104  	16  
3  	105  	104  	107  
3  	106  	105  	108  
3  	109  	46  	47  
3  	47  	106  	109  
3  	107  	15  	17  
3  	108  	107  	110  
3  	109  	108  	111  
3  	109  	112  	48  
3  	112  	49  	48  
3  	113  	110  	17  
3  	111  	110  	113  
3  	112  	111  	114  
3  	115  	50  	51  
3  	51  	112  	115  
3  	116  	113  	11  
3  	114  	113  	116  
3  	115  	114  	117  
3  	115  	118  	52  
3  	118  	53  	52  
3  	116  	7  	5  
3  	117  	116  	119  
3  	118  	117  	120  
3  	118  	121  	54  
3  	121  	55  	54  
3  	122  	119  	5  
3  	120  	119  	122  
3  	121  	120  	123  
3  	124  	56  	57  
3  	57  	121  	124  
3  	122  	4  	3  
3  	123  	122  	125  
3  	124  	123  	126  
3  	124  	127  	58  
3  	127  	59  	58  
3  	125  	3  	8  
3  	126  	125  	128  
3  	127  	126  	129  
3  	130  	60  	61  
3  	61  	127  	130  
3  	65  	128  	8  
3  	129  	128  	65  
3  	130  	129  	66  
3  	130  	68  	62  
3  	68  	63  	62  
3  	62  	60  	130  
3  	66  	68  	130  
3  	65  	66  	129  
3  	8  	19  	65  
3  	61  	59  	127  
3  	129  	130  	127  
3  	128  	129  	126  
3  	8  	128  	125  
3  	58  	56  	124  
3  	126  	127  	124  
3  	125  	126  	123  
3  	3  	125  	122  
3  	57  	55  	121  
3  	123  	124  	121  
3  	122  	123  	120  
3  	5  	4  	122  
3  	54  	53  	118  
3  	120  	121  	118  
3  	119  	120  	117  
3  	5  	119  	116  
3  	52  	50  	115  
3  	117  	118  	115  
3  	116  	117  	114  
3  	11  	7  	116  
3  	51  	49  	112  
3  	114  	115  	112  
3  	113  	114  	111  
3  	17  	11  	113  
3  	48  	46  	109  
3  	111  	112  	109  
3  	110  	111  	108  
3  	17  	110  	107  
3  	47  	45  	106  
3  	108  	109  	106  
3  	107  	108  	105  
3  	16  	15  	107  
3  	44  	43  	103  
3  	105  	106  	103  
3  	104  	105  	102  
3  	20  	16  	104  
3  	42  	40  	100  
3  	102  	103  	100  
3  	101  	102  	99  
3  	20  	101  	98  
3  	41  	64  	97  
3  	99  	100  	97  
3  	98  	99  	96  
3  	0  	21  	98  
3  	97  	64  	38  
3  	96  	97  	94  
3  	95  	96  	93  
3  	1  	0  	95  
3  	39  	37  	91  
3  	93  	94  	91  
3  	92  	93  	90  
3  	2  	1  	92  
3  	36  	34  	88  
3  	90  	91  	88  
3  	89  	90  	87  
3  	2  	89  	86  
3  	35  	33  	85  
3  	87  	88  	85  
3  	86  	87  	84  
3  	6  	86  	83  
3  	32  	30  	82  
3  	84  	85  	82  
3  	83  	84  	81  
3  	9  	83  	80  
3  	31  	28  	79  
3  	81  	82  	79  
3  	80  	81  	78  
3  	10  	80  	77  
3  	29  	27  	76  
3  	78  	79  	76  
3  	77  	78  	75  
3  	14  	77  	74  
3  	26  	24  	73  
3  	75  	76  	73  
3  	74  	75  	72  
3  	13  	12  	74  
3  	25  	23  	70  
3  	72  	73  	70  
3  	71  	72  	69  
3  	18  	13  	71  
3  	22  	63  	68  
3  	69  	70  	68  
3  	67  	69  	66  
3  	18  	67  	65  
3  	175  	176  	177  
3  	178  	179  	180  
3  	181  	182  	183  
3  	184  	185  	176  
3  	186  	187  	188  
3  	176  	186  	189  
3  	190  	191  	192  
3  	187  	190  	193  
3  	191  	181  	194  
3  	195  	196  	187  
3  	185  	195  	186  
3  	197  	198  	191  
3  	196  	197  	190  
3  	198  	199  	181  
3  	199  	200  	182  
3  	201  	202  	203  
3  	204  	205  	206  
3  	207  	206  	183  
3  	208  	203  	205  
3  	209  	210  	211  
3  	212  	211  	202  
3  	213  	180  	210  
3  	214  	201  	208  
3  	215  	204  	207  
3  	216  	207  	182  
3  	217  	208  	204  
3  	218  	209  	212  
3  	219  	212  	201  
3  	220  	213  	209  
3  	221  	222  	223  
3  	224  	225  	226  
3  	227  	178  	213  
3  	228  	226  	179  
3  	229  	228  	178  
3  	230  	224  	228  
3  	231  	232  	233  
3  	234  	233  	225  
3  	235  	223  	232  
3  	236  	231  	234  
3  	237  	234  	224  
3  	238  	235  	231  
3  	239  	240  	241  
3  	242  	221  	235  
3  	243  	244  	245  
3  	221  	243  	246  
3  	244  	239  	247  
3  	248  	249  	244  
3  	242  	248  	243  
3  	249  	250  	239  
3  	250  	251  	240  
3  	252  	253  	254  
3  	240  	252  	255  
3  	253  	175  	256  
3  	257  	258  	253  
3  	251  	257  	252  
3  	258  	184  	175  
3  	259  	260  	261  
3  	262  	263  	261  
3  	264  	265  	266  
3  	265  	262  	260  
3  	267  	268  	269  
3  	268  	264  	270  
3  	271  	267  	272  
3  	273  	271  	274  
3  	275  	276  	277  
3  	278  	279  	280  
3  	273  	281  	279  
3  	282  	280  	276  
3  	283  	284  	285  
3  	286  	277  	284  
3  	287  	285  	288  
3  	289  	281  	274  
3  	179  	259  	290  
3  	291  	270  	266  
3  	292  	266  	260  
3  	293  	272  	269  
3  	294  	269  	270  
3  	295  	274  	272  
3  	225  	291  	292  
3  	226  	292  	259  
3  	232  	293  	294  
3  	233  	294  	291  
3  	223  	295  	293  
3  	222  	289  	295  
3  	296  	297  	277  
3  	298  	299  	280  
3  	289  	298  	279  
3  	299  	296  	276  
3  	300  	301  	285  
3  	297  	300  	284  
3  	301  	302  	288  
3  	247  	241  	297  
3  	246  	245  	299  
3  	222  	246  	298  
3  	245  	247  	296  
3  	255  	254  	301  
3  	241  	255  	300  
3  	254  	256  	302  
3  	302  	303  	304  
3  	305  	288  	304  
3  	306  	304  	307  
3  	308  	307  	309  
3  	310  	311  	312  
3  	313  	309  	311  
3  	314  	312  	315  
3  	316  	317  	309  
3  	256  	177  	303  
3  	303  	316  	307  
3  	177  	189  	316  
3  	189  	188  	317  
3  	318  	319  	312  
3  	317  	318  	311  
3  	319  	320  	315  
3  	193  	192  	319  
3  	188  	193  	318  
3  	192  	194  	320  
3  	320  	321  	322  
3  	323  	315  	322  
3  	324  	325  	326  
3  	325  	327  	322  
3  	328  	324  	329  
3  	330  	328  	331  
3  	332  	333  	334  
3  	333  	330  	335  
3  	263  	332  	336  
3  	337  	335  	331  
3  	194  	183  	321  
3  	338  	329  	326  
3  	339  	326  	322  
3  	340  	331  	329  
3  	205  	338  	339  
3  	206  	339  	321  
3  	203  	340  	338  
3  	202  	337  	340  
3  	341  	336  	334  
3  	342  	334  	335  
3  	290  	261  	336  
3  	210  	341  	342  
3  	211  	342  	337  
3  	180  	290  	341  
3  	227  	220  	131  
3  	220  	132  	133  
3  	133  	131  	220  
3  	227  	134  	135  
3  	135  	229  	227  
3  	136  	230  	229  
3  	229  	137  	136  
3  	138  	237  	230  
3  	139  	236  	237  
3  	236  	139  	140  
3  	140  	238  	236  
3  	141  	242  	238  
3  	141  	142  	248  
3  	249  	248  	143  
3  	248  	142  	143  
3  	249  	144  	145  
3  	145  	146  	251  
3  	147  	148  	257  
3  	251  	146  	147  
3  	257  	148  	149  
3  	149  	258  	257  
3  	150  	151  	184  
3  	185  	184  	152  
3  	184  	153  	152  
3  	184  	151  	153  
3  	185  	154  	155  
3  	155  	195  	185  
3  	195  	156  	157  
3  	157  	196  	195  
3  	158  	159  	197  
3  	159  	160  	198  
3  	198  	160  	161  
3  	161  	199  	198  
3  	162  	163  	200  
3  	164  	216  	200  
3  	215  	216  	165  
3  	216  	164  	165  
3  	166  	217  	215  
3  	167  	214  	217  
3  	219  	214  	168  
3  	214  	167  	168  
3  	169  	218  	219  
3  	219  	170  	169  
3  	132  	220  	218  
3  	263  	23  	25  
3  	263  	22  	23  
3  	332  	25  	24  
3  	333  	24  	26  
3  	328  	330  	27  
3  	330  	26  	27  
3  	328  	29  	28  
3  	28  	324  	328  
3  	31  	30  	325  
3  	327  	325  	30  
3  	327  	32  	33  
3  	33  	323  	327  
3  	314  	323  	35  
3  	310  	314  	34  
3  	310  	36  	37  
3  	37  	313  	310  
3  	308  	313  	39  
3  	64  	306  	308  
3  	308  	38  	64  
3  	305  	306  	41  
3  	41  	40  	305  
3  	287  	305  	42  
3  	42  	43  	287  
3  	283  	287  	44  
3  	44  	45  	283  
3  	286  	283  	47  
3  	275  	286  	46  
3  	275  	48  	49  
3  	49  	282  	275  
3  	278  	282  	51  
3  	52  	273  	278  
3  	273  	53  	54  
3  	273  	52  	53  
3  	267  	271  	55  
3  	271  	54  	55  
3  	57  	56  	268  
3  	268  	56  	58  
3  	264  	59  	61  
3  	264  	58  	59  
3  	265  	60  	62  
3  	265  	61  	60  
3  	262  	63  	22  
3  	262  	62  	63  
3  	22  	263  	262  
3  	62  	262  	265  
3  	61  	265  	264  
3  	58  	264  	268  
3  	268  	267  	57  
3  	55  	57  	267  
3  	54  	271  	273  
3  	278  	50  	52  
3  	51  	50  	278  
3  	49  	51  	282  
3  	46  	48  	275  
3  	47  	46  	286  
3  	45  	47  	283  
3  	43  	44  	287  
3  	40  	42  	305  
3  	64  	41  	306  
3  	39  	38  	308  
3  	37  	39  	313  
3  	34  	36  	310  
3  	35  	34  	314  
3  	33  	35  	323  
3  	30  	32  	327  
3  	325  	324  	31  
3  	28  	31  	324  
3  	27  	29  	328  
3  	26  	330  	333  
3  	24  	333  	332  
3  	25  	332  	263  
3  	218  	171  	132  
3  	169  	171  	218  
3  	168  	170  	219  
3  	217  	166  	167  
3  	215  	172  	166  
3  	165  	172  	215  
3  	200  	163  	164  
3  	200  	199  	162  
3  	161  	162  	199  
3  	198  	197  	159  
3  	197  	196  	158  
3  	157  	158  	196  
3  	155  	156  	195  
3  	152  	154  	185  
3  	184  	258  	150  
3  	149  	150  	258  
3  	257  	251  	147  
3  	251  	250  	145  
3  	145  	250  	249  
3  	143  	144  	249  
3  	248  	242  	141  
3  	238  	173  	141  
3  	140  	173  	238  
3  	237  	138  	139  
3  	230  	174  	138  
3  	136  	174  	230  
3  	135  	137  	229  
3  	131  	134  	227  
3  	341  	210  	180  
3  	337  	202  	211  
3  	342  	211  	210  
3  	336  	341  	290  
3  	335  	337  	342  
3  	334  	342  	341  
3  	340  	203  	202  
3  	338  	205  	203  
3  	321  	183  	206  
3  	339  	206  	205  
3  	329  	338  	340  
3  	322  	321  	339  
3  	326  	339  	338  
3  	321  	320  	194  
3  	331  	340  	337  
3  	336  	261  	263  
3  	335  	334  	333  
3  	334  	336  	332  
3  	331  	335  	330  
3  	329  	331  	328  
3  	322  	326  	325  
3  	326  	329  	324  
3  	322  	327  	323  
3  	322  	315  	320  
3  	320  	319  	192  
3  	318  	317  	188  
3  	319  	318  	193  
3  	315  	312  	319  
3  	311  	309  	317  
3  	312  	311  	318  
3  	317  	316  	189  
3  	316  	303  	177  
3  	307  	304  	303  
3  	303  	302  	256  
3  	309  	307  	316  
3  	315  	323  	314  
3  	311  	310  	313  
3  	312  	314  	310  
3  	309  	313  	308  
3  	307  	308  	306  
3  	304  	306  	305  
3  	304  	288  	302  
3  	302  	301  	254  
3  	300  	297  	241  
3  	301  	300  	255  
3  	296  	299  	245  
3  	298  	289  	222  
3  	299  	298  	246  
3  	297  	296  	247  
3  	288  	285  	301  
3  	284  	277  	297  
3  	285  	284  	300  
3  	276  	280  	299  
3  	279  	281  	289  
3  	280  	279  	298  
3  	277  	276  	296  
3  	295  	223  	222  
3  	293  	232  	223  
3  	291  	225  	233  
3  	294  	233  	232  
3  	259  	179  	226  
3  	292  	226  	225  
3  	272  	293  	295  
3  	270  	291  	294  
3  	269  	294  	293  
3  	260  	259  	292  
3  	266  	292  	291  
3  	290  	180  	179  
3  	274  	295  	289  
3  	288  	305  	287  
3  	284  	283  	286  
3  	285  	287  	283  
3  	276  	275  	282  
3  	279  	278  	273  
3  	280  	282  	278  
3  	277  	286  	275  
3  	274  	281  	273  
3  	272  	274  	271  
3  	270  	269  	268  
3  	269  	272  	267  
3  	260  	266  	265  
3  	266  	270  	264  
3  	261  	260  	262  
3  	261  	290  	259  
3  	175  	253  	258  
3  	252  	240  	251  
3  	253  	252  	257  
3  	256  	254  	253  
3  	255  	241  	240  
3  	254  	255  	252  
3  	240  	239  	250  
3  	239  	244  	249  
3  	243  	221  	242  
3  	244  	243  	248  
3  	247  	245  	244  
3  	246  	222  	221  
3  	245  	246  	243  
3  	235  	238  	242  
3  	241  	247  	239  
3  	231  	236  	238  
3  	224  	230  	237  
3  	234  	237  	236  
3  	232  	231  	235  
3  	225  	224  	234  
3  	233  	234  	231  
3  	228  	229  	230  
3  	178  	227  	229  
3  	179  	178  	228  
3  	213  	220  	227  
3  	226  	228  	224  
3  	223  	235  	221  
3  	209  	218  	220  
3  	201  	214  	219  
3  	212  	219  	218  
3  	204  	215  	217  
3  	182  	200  	216  
3  	207  	216  	215  
3  	208  	217  	214  
3  	210  	209  	213  
3  	202  	201  	212  
3  	211  	212  	209  
3  	205  	204  	208  
3  	183  	182  	207  
3  	206  	207  	204  
3  	203  	208  	201  
3  	182  	181  	199  
3  	181  	191  	198  
3  	190  	187  	196  
3  	191  	190  	197  
3  	186  	176  	185  
3  	187  	186  	195  
3  	194  	192  	191  
3  	193  	188  	187  
3  	192  	193  	190  
3  	189  	177  	176  
3  	188  	189  	186  
3  	176  	175  	184  
3  	183  	194  	181  
3  	180  	213  	178  
3  	177  	256  	175  
3  	375  	376  	154  
3  	376  	155  	154  
3  	377  	376  	375  
3  	378  	377  	379  
3  	380  	375  	152  
3  	379  	375  	380  
3  	381  	379  	382  
3  	380  	151  	150  
3  	380  	153  	151  
3  	150  	383  	380  
3  	382  	380  	383  
3  	384  	382  	385  
3  	386  	383  	148  
3  	383  	149  	148  
3  	385  	383  	386  
3  	387  	385  	388  
3  	387  	389  	343  
3  	390  	386  	146  
3  	386  	147  	146  
3  	388  	386  	390  
3  	389  	388  	391  
3  	389  	392  	344  
3  	390  	145  	144  
3  	144  	393  	390  
3  	391  	390  	393  
3  	392  	391  	394  
3  	395  	345  	344  
3  	396  	393  	142  
3  	393  	143  	142  
3  	394  	393  	396  
3  	395  	394  	397  
3  	398  	346  	345  
3  	396  	141  	173  
3  	173  	399  	396  
3  	397  	396  	399  
3  	398  	397  	400  
3  	401  	347  	346  
3  	402  	399  	139  
3  	399  	140  	139  
3  	400  	399  	402  
3  	401  	400  	403  
3  	404  	348  	347  
3  	402  	138  	174  
3  	174  	405  	402  
3  	403  	402  	405  
3  	404  	403  	406  
3  	407  	349  	348  
3  	405  	136  	137  
3  	137  	408  	405  
3  	406  	405  	408  
3  	407  	406  	409  
3  	410  	408  	134  
3  	408  	135  	134  
3  	409  	408  	410  
3  	411  	409  	412  
3  	410  	131  	133  
3  	412  	410  	413  
3  	414  	412  	415  
3  	413  	132  	171  
3  	171  	416  	413  
3  	413  	133  	132  
3  	415  	413  	416  
3  	417  	415  	418  
3  	419  	416  	170  
3  	416  	169  	170  
3  	418  	416  	419  
3  	420  	418  	421  
3  	422  	350  	351  
3  	423  	419  	167  
3  	419  	168  	167  
3  	421  	419  	423  
3  	422  	421  	424  
3  	425  	352  	350  
3  	423  	166  	172  
3  	172  	426  	423  
3  	424  	423  	426  
3  	425  	424  	427  
3  	428  	353  	352  
3  	429  	426  	164  
3  	426  	165  	164  
3  	427  	426  	429  
3  	428  	427  	430  
3  	431  	354  	353  
3  	429  	163  	162  
3  	162  	432  	429  
3  	430  	429  	432  
3  	431  	430  	433  
3  	434  	355  	354  
3  	435  	432  	160  
3  	432  	161  	160  
3  	433  	432  	435  
3  	434  	433  	436  
3  	437  	356  	355  
3  	435  	159  	158  
3  	158  	438  	435  
3  	436  	435  	438  
3  	437  	436  	439  
3  	437  	440  	357  
3  	438  	157  	156  
3  	156  	376  	438  
3  	439  	438  	376  
3  	440  	439  	377  
3  	387  	358  	359  
3  	387  	360  	358  
3  	359  	384  	387  
3  	384  	361  	362  
3  	378  	381  	363  
3  	381  	362  	363  
3  	363  	364  	378  
3  	440  	378  	365  
3  	378  	366  	365  
3  	417  	420  	367  
3  	420  	351  	368  
3  	368  	367  	420  
3  	417  	369  	370  
3  	414  	371  	372  
3  	414  	370  	371  
3  	372  	411  	414  
3  	407  	411  	373  
3  	411  	374  	373  
3  	373  	349  	407  
3  	372  	374  	411  
3  	370  	414  	417  
3  	367  	369  	417  
3  	365  	357  	440  
3  	364  	366  	378  
3  	362  	381  	384  
3  	359  	361  	384  
3  	377  	378  	440  
3  	376  	377  	439  
3  	156  	155  	376  
3  	357  	356  	437  
3  	439  	440  	437  
3  	438  	439  	436  
3  	158  	157  	438  
3  	355  	434  	437  
3  	436  	437  	434  
3  	435  	436  	433  
3  	160  	159  	435  
3  	354  	431  	434  
3  	433  	434  	431  
3  	432  	433  	430  
3  	162  	161  	432  
3  	353  	428  	431  
3  	430  	431  	428  
3  	429  	430  	427  
3  	164  	163  	429  
3  	352  	425  	428  
3  	427  	428  	425  
3  	426  	427  	424  
3  	172  	165  	426  
3  	350  	422  	425  
3  	424  	425  	422  
3  	423  	424  	421  
3  	167  	166  	423  
3  	351  	420  	422  
3  	421  	422  	420  
3  	419  	421  	418  
3  	170  	168  	419  
3  	418  	420  	417  
3  	416  	418  	415  
3  	171  	169  	416  
3  	415  	417  	414  
3  	413  	415  	412  
3  	133  	413  	410  
3  	412  	414  	411  
3  	410  	412  	409  
3  	134  	131  	410  
3  	409  	411  	407  
3  	408  	409  	406  
3  	137  	135  	408  
3  	348  	404  	407  
3  	406  	407  	404  
3  	405  	406  	403  
3  	174  	136  	405  
3  	347  	401  	404  
3  	403  	404  	401  
3  	402  	403  	400  
3  	139  	138  	402  
3  	346  	398  	401  
3  	400  	401  	398  
3  	399  	400  	397  
3  	173  	140  	399  
3  	345  	395  	398  
3  	397  	398  	395  
3  	396  	397  	394  
3  	142  	141  	396  
3  	344  	392  	395  
3  	394  	395  	392  
3  	393  	394  	391  
3  	144  	143  	393  
3  	344  	343  	389  
3  	391  	392  	389  
3  	390  	391  	388  
3  	146  	145  	390  
3  	343  	360  	387  
3  	388  	389  	387  
3  	386  	388  	385  
3  	148  	147  	386  
3  	385  	387  	384  
3  	383  	385  	382  
3  	150  	149  	383  
3  	382  	384  	381  
3  	380  	382  	379  
3  	152  	153  	380  
3  	379  	381  	378  
3  	375  	379  	377  
3  	154  	152  	375  
3  	344  	441  	442  
3  	441  	345  	346  
3  	442  	343  	344  
3  	346  	443  	441  
3  	443  	347  	348  
3  	444  	348  	349  
3  	346  	347  	443  
3  	349  	373  	444  
3  	442  	358  	360  
3  	348  	444  	443  
3  	344  	345  	441  
3  	360  	343  	442  
3  	445  	446  	447  
3  	447  	462  	445  
3  	462  	448  	449  
3  	449  	463  	462  
3  	463  	450  	451  
3  	451  	464  	463  
3  	464  	452  	453  
3  	453  	465  	464  
3  	465  	454  	455  
3  	455  	456  	465  
3  	445  	462  	466  
3  	462  	463  	467  
3  	463  	464  	468  
3  	464  	465  	469  
3  	465  	456  	457  
3  	458  	466  	470  
3  	466  	467  	471  
3  	467  	468  	472  
3  	468  	469  	473  
3  	469  	457  	459  
3  	460  	470  	444  
3  	470  	471  	443  
3  	471  	472  	441  
3  	472  	473  	442  
3  	473  	459  	358  
3  	358  	442  	473  
3  	442  	441  	472  
3  	441  	443  	471  
3  	443  	444  	470  
3  	444  	373  	460  
3  	459  	473  	469  
3  	473  	472  	468  
3  	472  	471  	467  
3  	471  	470  	466  
3  	470  	460  	458  
3  	457  	469  	465  
3  	469  	468  	464  
3  	468  	467  	463  
3  	467  	466  	462  
3  	466  	458  	445  
3  	455  	461  	456  
3  	453  	454  	465  
3  	451  	452  	464  
3  	449  	450  	463  
3  	447  	448  	462  
3  	483  	474  	366  
3  	474  	365  	366  
3  	483  	484  	475  
3  	484  	485  	476  
3  	477  	476  	485  
3  	363  	486  	483  
3  	483  	486  	487  
3  	484  	487  	488  
3  	488  	478  	479  
3  	479  	485  	488  
3  	486  	363  	362  
3  	362  	489  	486  
3  	362  	361  	489  
3  	486  	489  	490  
3  	487  	490  	491  
3  	491  	480  	481  
3  	481  	488  	491  
3  	359  	358  	459  
3  	489  	459  	457  
3  	490  	457  	456  
3  	461  	480  	491  
3  	491  	456  	461  
3  	456  	491  	490  
3  	457  	490  	489  
3  	459  	489  	359  
3  	481  	478  	488  
3  	491  	488  	487  
3  	490  	487  	486  
3  	361  	359  	489  
3  	479  	482  	485  
3  	488  	485  	484  
3  	487  	484  	483  
3  	483  	364  	363  
3  	485  	482  	477  
3  	476  	475  	484  
3  	475  	474  	483  
3  	366  	364  	483  
3  	509  	476  	492  
3  	476  	477  	492  
3  	510  	509  	493  
3  	509  	494  	493  
3  	511  	510  	495  
3  	510  	496  	495  
3  	512  	511  	497  
3  	511  	498  	497  
3  	499  	512  	500  
3  	512  	501  	500  
3  	476  	509  	513  
3  	509  	510  	514  
3  	510  	511  	515  
3  	511  	512  	516  
3  	512  	499  	502  
3  	475  	513  	517  
3  	513  	514  	518  
3  	514  	515  	519  
3  	515  	516  	520  
3  	516  	502  	503  
3  	474  	517  	504  
3  	517  	518  	505  
3  	518  	519  	506  
3  	519  	520  	507  
3  	520  	503  	368  
3  	368  	507  	520  
3  	507  	506  	519  
3  	506  	505  	518  
3  	505  	504  	517  
3  	504  	365  	474  
3  	503  	520  	516  
3  	520  	519  	515  
3  	519  	518  	514  
3  	518  	517  	513  
3  	517  	474  	475  
3  	502  	516  	512  
3  	516  	515  	511  
3  	515  	514  	510  
3  	514  	513  	509  
3  	513  	475  	476  
3  	500  	508  	499  
3  	497  	501  	512  
3  	495  	498  	511  
3  	493  	496  	510  
3  	492  	494  	509  
3  	527  	460  	374  
3  	460  	373  	374  
3  	527  	528  	458  
3  	528  	529  	445  
3  	529  	521  	522  
3  	522  	445  	529  
3  	371  	530  	527  
3  	527  	530  	531  
3  	528  	531  	532  
3  	529  	532  	523  
3  	532  	524  	523  
3  	530  	370  	369  
3  	369  	533  	530  
3  	530  	371  	370  
3  	530  	533  	534  
3  	531  	534  	535  
3  	535  	525  	524  
3  	535  	526  	525  
3  	367  	368  	503  
3  	533  	503  	502  
3  	534  	502  	499  
3  	508  	526  	535  
3  	535  	499  	508  
3  	499  	535  	534  
3  	502  	534  	533  
3  	503  	533  	367  
3  	524  	532  	535  
3  	535  	532  	531  
3  	534  	531  	530  
3  	369  	367  	533  
3  	523  	521  	529  
3  	532  	529  	528  
3  	531  	528  	527  
3  	527  	372  	371  
3  	522  	446  	445  
3  	445  	458  	528  
3  	458  	460  	527  
3  	374  	372  	527  
3  	352  	506  	507  
3  	507  	368  	351  
3  	507  	350  	352  
3  	504  	505  	355  
3  	352  	353  	506  
3  	506  	353  	354  
3  	505  	354  	355  
3  	504  	356  	357  
3  	354  	505  	506  
3  	357  	365  	504  
3  	355  	356  	504  
3  	351  	350  	507  
3  	455  	454  	536  
3  	536  	537  	538  
3  	454  	453  	537  
3  	537  	536  	454  
3  	538  	539  	536  
3  	446  	540  	541  
3  	541  	447  	446  
3  	541  	542  	447  
3  	543  	544  	522  
3  	522  	521  	543  
3  	521  	523  	543  
3  	545  	524  	525  
3  	545  	523  	524  
3  	525  	546  	545  
3  	547  	526  	508  
3  	548  	525  	526  
3  	526  	547  	548  
3  	548  	546  	525  
3  	494  	549  	550  
3  	549  	551  	552  
3  	552  	550  	549  
3  	550  	493  	494  
3  	494  	492  	549  
3  	553  	477  	482  
3  	554  	492  	477  
3  	477  	553  	554  
3  	554  	549  	492  
3  	555  	553  	479  
3  	555  	478  	481  
3  	481  	556  	555  
3  	557  	558  	461  
3  	461  	455  	557  
3  	556  	481  	480  
3  	480  	461  	556  
3  	496  	559  	560  
3  	560  	495  	496  
3  	493  	550  	561  
3  	561  	562  	493  
3  	562  	563  	493  
3  	563  	559  	493  
3  	497  	564  	565  
3  	498  	560  	564  
3  	564  	497  	498  
3  	498  	495  	560  
3  	566  	567  	568  
3  	568  	569  	566  
3  	547  	500  	570  
3  	570  	571  	547  
3  	571  	572  	547  
3  	572  	573  	547  
3  	500  	574  	575  
3  	500  	576  	574  
3  	575  	570  	500  
3  	573  	567  	547  
3  	500  	501  	577  
3  	577  	576  	500  
3  	501  	497  	577  
3  	578  	579  	580  
3  	569  	581  	580  
3  	569  	568  	581  
3  	580  	579  	569  
3  	582  	583  	584  
3  	582  	585  	583  
3  	582  	586  	585  
3  	587  	578  	588  
3  	586  	582  	587  
3  	588  	586  	587  
3  	589  	590  	591  
3  	591  	592  	589  
3  	539  	538  	593  
3  	593  	594  	539  
3  	594  	595  	539  
3  	595  	590  	539  
3  	596  	592  	597  
3  	598  	599  	596  
3  	597  	598  	596  
3  	592  	591  	597  
3  	448  	600  	601  
3  	601  	449  	448  
3  	542  	602  	603  
3  	542  	604  	602  
3  	603  	447  	542  
3  	603  	605  	447  
3  	542  	606  	604  
3  	605  	607  	447  
3  	542  	608  	606  
3  	607  	600  	447  
3  	609  	599  	610  
3  	608  	542  	609  
3  	610  	608  	609  
3  	449  	601  	611  
3  	611  	451  	450  
3  	611  	450  	449  
3  	611  	612  	451  
3  	453  	613  	614  
3  	453  	615  	613  
3  	453  	616  	615  
3  	452  	451  	617  
3  	616  	453  	452  
3  	617  	616  	452  
3  	614  	537  	453  
3  	612  	617  	451  
3  	448  	447  	600  
3  	598  	610  	599  
3  	589  	539  	590  
3  	584  	552  	582  
3  	580  	588  	578  
3  	566  	547  	567  
3  	565  	577  	497  
3  	496  	493  	559  
3  	558  	556  	461  
3  	479  	478  	555  
3  	482  	479  	553  
3  	551  	582  	552  
3  	508  	500  	547  
3  	545  	543  	523  
3  	544  	540  	522  
3  	446  	522  	540  
3  	536  	557  	455  
3  	552  	538  	537  
3  	537  	550  	552  
3  	604  	572  	571  
3  	604  	573  	572  
3  	571  	602  	604  
3  	567  	573  	606  
3  	610  	568  	567  
3  	610  	581  	568  
3  	567  	608  	610  
3  	580  	581  	598  
3  	588  	591  	590  
3  	590  	586  	588  
3  	580  	597  	591  
3  	590  	595  	585  
3  	595  	594  	583  
3  	584  	593  	538  
3  	584  	594  	593  
3  	538  	552  	584  
3  	584  	583  	594  
3  	583  	585  	595  
3  	585  	586  	590  
3  	588  	580  	591  
3  	598  	597  	580  
3  	610  	598  	581  
3  	606  	608  	567  
3  	604  	606  	573  
3  	602  	571  	570  
3  	570  	603  	602  
3  	614  	561  	550  
3  	614  	562  	561  
3  	550  	537  	614  
3  	615  	563  	562  
3  	616  	559  	563  
3  	560  	559  	616  
3  	616  	617  	560  
3  	612  	564  	560  
3  	564  	612  	611  
3  	577  	601  	600  
3  	577  	611  	601  
3  	600  	576  	577  
3  	600  	607  	574  
3  	575  	605  	603  
3  	575  	607  	605  
3  	603  	570  	575  
3  	575  	574  	607  
3  	574  	576  	600  
3  	577  	565  	611  
3  	611  	565  	564  
3  	617  	612  	560  
3  	563  	615  	616  
3  	562  	613  	615  
3  	614  	613  	562  
3  	618  	619  	620  
3  	621  	620  	622  
3  	623  	622  	624  
3  	625  	624  	626  
3  	627  	626  	628  
3  	629  	628  	630  
3  	631  	630  	632  
3  	633  	632  	634  
3  	635  	634  	636  
3  	637  	636  	638  
3  	639  	638  	640  
3  	641  	640  	642  
3  	643  	642  	644  
3  	645  	644  	646  
3  	647  	646  	619  
3  	648  	618  	621  
3  	649  	621  	623  
3  	650  	623  	625  
3  	651  	625  	627  
3  	652  	627  	629  
3  	653  	629  	631  
3  	654  	631  	633  
3  	655  	633  	635  
3  	656  	635  	637  
3  	657  	637  	639  
3  	658  	639  	641  
3  	659  	641  	643  
3  	660  	643  	645  
3  	661  	645  	647  
3  	662  	647  	618  
3  	663  	648  	649  
3  	664  	649  	650  
3  	665  	650  	651  
3  	666  	651  	652  
3  	667  	652  	653  
3  	668  	653  	654  
3  	669  	654  	655  
3  	670  	655  	656  
3  	671  	656  	657  
3  	672  	657  	658  
3  	673  	658  	659  
3  	674  	659  	660  
3  	675  	660  	661  
3  	676  	661  	662  
3  	677  	662  	648  
3  	678  	663  	664  
3  	679  	664  	665  
3  	680  	665  	666  
3  	681  	666  	667  
3  	682  	667  	668  
3  	683  	668  	669  
3  	684  	669  	670  
3  	685  	670  	671  
3  	686  	671  	672  
3  	687  	672  	673  
3  	688  	673  	674  
3  	689  	674  	675  
3  	690  	675  	676  
3  	691  	676  	677  
3  	692  	677  	663  
3  	678  	679  	569  
3  	679  	566  	569  
3  	679  	680  	547  
3  	680  	548  	547  
3  	680  	681  	546  
3  	681  	545  	546  
3  	681  	682  	543  
3  	682  	544  	543  
3  	682  	683  	540  
3  	683  	541  	540  
3  	683  	684  	542  
3  	684  	609  	542  
3  	684  	685  	599  
3  	685  	596  	599  
3  	685  	686  	592  
3  	686  	589  	592  
3  	686  	687  	539  
3  	687  	536  	539  
3  	687  	688  	557  
3  	688  	558  	557  
3  	688  	689  	556  
3  	689  	555  	556  
3  	689  	690  	553  
3  	690  	554  	553  
3  	690  	691  	549  
3  	691  	551  	549  
3  	691  	692  	582  
3  	692  	587  	582  
3  	692  	678  	578  
3  	678  	579  	578  
3  	578  	587  	692  
3  	582  	551  	691  
3  	549  	554  	690  
3  	553  	555  	689  
3  	556  	558  	688  
3  	557  	536  	687  
3  	539  	589  	686  
3  	592  	596  	685  
3  	599  	609  	684  
3  	542  	541  	683  
3  	540  	544  	682  
3  	543  	545  	681  
3  	546  	548  	680  
3  	547  	566  	679  
3  	569  	579  	678  
3  	663  	678  	692  
3  	677  	692  	691  
3  	676  	691  	690  
3  	675  	690  	689  
3  	674  	689  	688  
3  	673  	688  	687  
3  	672  	687  	686  
3  	671  	686  	685  
3  	670  	685  	684  
3  	669  	684  	683  
3  	668  	683  	682  
3  	667  	682  	681  
3  	666  	681  	680  
3  	665  	680  	679  
3  	664  	679  	678  
3  	648  	663  	677  
3  	662  	677  	676  
3  	661  	676  	675  
3  	660  	675  	674  
3  	659  	674  	673  
3  	658  	673  	672  
3  	657  	672  	671  
3  	656  	671  	670  
3  	655  	670  	669  
3  	654  	669  	668  
3  	653  	668  	667  
3  	652  	667  	666  
3  	651  	666  	665  
3  	650  	665  	664  
3  	649  	664  	663  
3  	618  	648  	662  
3  	647  	662  	661  
3  	645  	661  	660  
3  	643  	660  	659  
3  	641  	659  	658  
3  	639  	658  	657  
3  	637  	657  	656  
3  	635  	656  	655  
3  	633  	655  	654  
3  	631  	654  	653  
3  	629  	653  	652  
3  	627  	652  	651  
3  	625  	651  	650  
3  	623  	650  	649  
3  	621  	649  	648  
3  	619  	618  	647  
3  	646  	647  	645  
3  	644  	645  	643  
3  	642  	643  	641  
3  	640  	641  	639  
3  	638  	639  	637  
3  	636  	637  	635  
3  	634  	635  	633  
3  	632  	633  	631  
3  	630  	631  	629  
3  	628  	629  	627  
3  	626  	627  	625  
3  	624  	625  	623  
3  	622  	623  	621  
3  	620  	621  	618  
3  	619  	646  	693  
3  	646  	644  	693  
3  	644  	642  	693  
3  	642  	640  	693  
3  	640  	638  	693  
3  	638  	636  	693  
3  	636  	634  	693  
3  	634  	632  	693  
3  	632  	630  	693  
3  	630  	628  	693  
3  	628  	626  	693  
3  	626  	624  	693  
3  	624  	622  	693  
3  	622  	620  	693  
3  	620  	619  	693  
